solid OpenSCAD_Model
  facet normal 0.99452 0.104542 0
    outer loop
      vertex 18.3461 3.89959 4.064
      vertex 18.6509 1 2.032
      vertex 18.3461 3.89959 1.016
    endloop
  endfacet
  facet normal 0.994521 0.104538 6.66334e-06
    outer loop
      vertex 18.756 0 4.064
      vertex 18.6509 1 2.032
      vertex 18.3461 3.89959 4.064
    endloop
  endfacet
  facet normal 0.994522 0.104524 0
    outer loop
      vertex 18.6509 1 2.032
      vertex 18.756 0 4.064
      vertex 18.756 0 2.032
    endloop
  endfacet
  facet normal 0.99452 0.104542 0
    outer loop
      vertex 18.3461 3.89959 1.016
      vertex 18.6509 1 2.032
      vertex 18.6509 1 1.016
    endloop
  endfacet
  facet normal -0.994521 0.104538 0
    outer loop
      vertex -18.756 0 1.016
      vertex -18.3461 3.89959 4.064
      vertex -18.3461 3.89959 1.016
    endloop
  endfacet
  facet normal -0.994521 0.104538 0
    outer loop
      vertex -18.3461 3.89959 4.064
      vertex -18.756 0 1.016
      vertex -18.756 0 4.064
    endloop
  endfacet
  facet normal 0 1 -0
    outer loop
      vertex 1.96054 18.6533 1.016
      vertex -1.96054 18.6533 4.064
      vertex 1.96054 18.6533 4.064
    endloop
  endfacet
  facet normal 0 1 0
    outer loop
      vertex -1.96054 18.6533 4.064
      vertex 1.96054 18.6533 1.016
      vertex -1.96054 18.6533 1.016
    endloop
  endfacet
  facet normal 0 -1 0
    outer loop
      vertex -1.96054 -18.6533 1.016
      vertex 1.96054 -18.6533 4.064
      vertex -1.96054 -18.6533 4.064
    endloop
  endfacet
  facet normal 0 -1 -0
    outer loop
      vertex 1.96054 -18.6533 4.064
      vertex -1.96054 -18.6533 1.016
      vertex 1.96054 -18.6533 1.016
    endloop
  endfacet
  facet normal 0.743156 0.669118 0
    outer loop
      vertex 14.1364 12.1768 4.064
      vertex 15.1739 11.0245 4.064
      vertex 14.1364 12.1768 2.032
    endloop
  endfacet
  facet normal 0.743135 0.669142 0
    outer loop
      vertex 14.1364 12.1768 2.032
      vertex 12.5502 13.9384 1.016
      vertex 12.5502 13.9384 2.032
    endloop
  endfacet
  facet normal 0.743143 0.669132 -2.96853e-05
    outer loop
      vertex 14.1364 12.1768 2.032
      vertex 15.1739 11.0245 1.016
      vertex 12.5502 13.9384 1.016
    endloop
  endfacet
  facet normal 0.743156 0.669118 -0
    outer loop
      vertex 15.1739 11.0245 1.016
      vertex 14.1364 12.1768 2.032
      vertex 15.1739 11.0245 4.064
    endloop
  endfacet
  facet normal -0.743135 0.669142 0
    outer loop
      vertex -12.5502 13.9384 1.016
      vertex -14.1364 12.1768 2.032
      vertex -12.5502 13.9384 2.032
    endloop
  endfacet
  facet normal -0.743143 0.669132 -2.96853e-05
    outer loop
      vertex -15.1739 11.0245 1.016
      vertex -14.1364 12.1768 2.032
      vertex -12.5502 13.9384 1.016
    endloop
  endfacet
  facet normal -0.743156 0.669118 0
    outer loop
      vertex -15.1739 11.0245 4.064
      vertex -14.1364 12.1768 2.032
      vertex -15.1739 11.0245 1.016
    endloop
  endfacet
  facet normal -0.743156 0.669118 0
    outer loop
      vertex -14.1364 12.1768 2.032
      vertex -15.1739 11.0245 4.064
      vertex -14.1364 12.1768 4.064
    endloop
  endfacet
  facet normal -0.866018 0.500012 0
    outer loop
      vertex -17.1345 7.62875 1.016
      vertex -15.1739 11.0245 4.064
      vertex -15.1739 11.0245 1.016
    endloop
  endfacet
  facet normal -0.866018 0.500012 0
    outer loop
      vertex -15.1739 11.0245 4.064
      vertex -17.1345 7.62875 1.016
      vertex -17.1345 7.62875 4.064
    endloop
  endfacet
  facet normal -0.406727 0.91355 0
    outer loop
      vertex -5.79592 17.838 1.016
      vertex -9.378 16.2432 4.064
      vertex -5.79592 17.838 4.064
    endloop
  endfacet
  facet normal -0.406727 0.91355 0
    outer loop
      vertex -9.378 16.2432 4.064
      vertex -5.79592 17.838 1.016
      vertex -9.378 16.2432 1.016
    endloop
  endfacet
  facet normal 0.866018 -0.500012 0
    outer loop
      vertex 15.1739 -11.0245 4.064
      vertex 17.1345 -7.62875 1.016
      vertex 17.1345 -7.62875 4.064
    endloop
  endfacet
  facet normal 0.866018 -0.500012 0
    outer loop
      vertex 17.1345 -7.62875 1.016
      vertex 15.1739 -11.0245 4.064
      vertex 15.1739 -11.0245 1.016
    endloop
  endfacet
  facet normal 0.866018 0.500012 0
    outer loop
      vertex 17.1345 7.62875 4.064
      vertex 15.1739 11.0245 1.016
      vertex 15.1739 11.0245 4.064
    endloop
  endfacet
  facet normal 0.866018 0.500012 0
    outer loop
      vertex 15.1739 11.0245 1.016
      vertex 17.1345 7.62875 4.064
      vertex 17.1345 7.62875 1.016
    endloop
  endfacet
  facet normal 0.951062 0.308999 0
    outer loop
      vertex 18.3461 3.89959 4.064
      vertex 17.1345 7.62875 1.016
      vertex 17.1345 7.62875 4.064
    endloop
  endfacet
  facet normal 0.951062 0.308999 0
    outer loop
      vertex 17.1345 7.62875 1.016
      vertex 18.3461 3.89959 4.064
      vertex 18.3461 3.89959 1.016
    endloop
  endfacet
  facet normal 0.406727 0.91355 -0
    outer loop
      vertex 9.378 16.2432 1.016
      vertex 5.79592 17.838 4.064
      vertex 9.378 16.2432 4.064
    endloop
  endfacet
  facet normal 0.406727 0.91355 0
    outer loop
      vertex 5.79592 17.838 4.064
      vertex 9.378 16.2432 1.016
      vertex 5.79592 17.838 1.016
    endloop
  endfacet
  facet normal 0.207928 0.978144 -0
    outer loop
      vertex 5.79592 17.838 1.016
      vertex 1.96054 18.6533 4.064
      vertex 5.79592 17.838 4.064
    endloop
  endfacet
  facet normal 0.207928 0.978144 0
    outer loop
      vertex 1.96054 18.6533 4.064
      vertex 5.79592 17.838 1.016
      vertex 1.96054 18.6533 1.016
    endloop
  endfacet
  facet normal 0.587925 0.808916 0
    outer loop
      vertex 12.5502 13.9384 2.032
      vertex 12.5502 13.9384 1.016
      vertex 12.2193 14.1789 2.032
    endloop
  endfacet
  facet normal 0.587781 0.80902 -0
    outer loop
      vertex 12.2193 14.1789 2.032
      vertex 9.378 16.2432 4.064
      vertex 12.2193 14.1789 4.064
    endloop
  endfacet
  facet normal 0.587796 0.809009 -6.42046e-05
    outer loop
      vertex 9.378 16.2432 1.016
      vertex 12.2193 14.1789 2.032
      vertex 12.5502 13.9384 1.016
    endloop
  endfacet
  facet normal 0.587781 0.80902 0
    outer loop
      vertex 12.2193 14.1789 2.032
      vertex 9.378 16.2432 1.016
      vertex 9.378 16.2432 4.064
    endloop
  endfacet
  facet normal -0.951062 0.308999 0
    outer loop
      vertex -18.3461 3.89959 1.016
      vertex -17.1345 7.62875 4.064
      vertex -17.1345 7.62875 1.016
    endloop
  endfacet
  facet normal -0.951062 0.308999 0
    outer loop
      vertex -17.1345 7.62875 4.064
      vertex -18.3461 3.89959 1.016
      vertex -18.3461 3.89959 4.064
    endloop
  endfacet
  facet normal 0 0 1
    outer loop
      vertex 9.378 16.2432 4.064
      vertex 12.0706 14.0302 4.064
      vertex 12.2193 14.1789 4.064
    endloop
  endfacet
  facet normal -0 0 1
    outer loop
      vertex 8.128 14.0781 4.064
      vertex 12.0706 14.0302 4.064
      vertex 9.378 16.2432 4.064
    endloop
  endfacet
  facet normal 0 0 1
    outer loop
      vertex 12.0706 14.0302 4.064
      vertex 8.128 14.0781 4.064
      vertex 10.8774 12.0806 4.064
    endloop
  endfacet
  facet normal 0 0 1
    outer loop
      vertex 5.79592 17.838 4.064
      vertex 8.128 14.0781 4.064
      vertex 9.378 16.2432 4.064
    endloop
  endfacet
  facet normal 0 0 1
    outer loop
      vertex 5.79592 17.838 4.064
      vertex 5.02338 15.4604 4.064
      vertex 8.128 14.0781 4.064
    endloop
  endfacet
  facet normal 0 0 1
    outer loop
      vertex 1.96054 18.6533 4.064
      vertex 5.02338 15.4604 4.064
      vertex 5.79592 17.838 4.064
    endloop
  endfacet
  facet normal 0 0 1
    outer loop
      vertex 1.96054 18.6533 4.064
      vertex 1.69921 16.1669 4.064
      vertex 5.02338 15.4604 4.064
    endloop
  endfacet
  facet normal 0 0 1
    outer loop
      vertex 1.96054 18.6533 4.064
      vertex -1.69921 16.1669 4.064
      vertex 1.69921 16.1669 4.064
    endloop
  endfacet
  facet normal -0 0 1
    outer loop
      vertex -1.96054 18.6533 4.064
      vertex -1.69921 16.1669 4.064
      vertex 1.96054 18.6533 4.064
    endloop
  endfacet
  facet normal 0 0 1
    outer loop
      vertex -1.96054 18.6533 4.064
      vertex -5.02338 15.4604 4.064
      vertex -1.69921 16.1669 4.064
    endloop
  endfacet
  facet normal -0 0 1
    outer loop
      vertex -5.79592 17.838 4.064
      vertex -5.02338 15.4604 4.064
      vertex -1.96054 18.6533 4.064
    endloop
  endfacet
  facet normal 0 0 1
    outer loop
      vertex -5.79592 17.838 4.064
      vertex -8.128 14.0781 4.064
      vertex -5.02338 15.4604 4.064
    endloop
  endfacet
  facet normal -0 0 1
    outer loop
      vertex -9.378 16.2432 4.064
      vertex -8.128 14.0781 4.064
      vertex -5.79592 17.838 4.064
    endloop
  endfacet
  facet normal 0 0 1
    outer loop
      vertex -12.0706 14.0302 4.064
      vertex -8.128 14.0781 4.064
      vertex -9.378 16.2432 4.064
    endloop
  endfacet
  facet normal 0 0 1
    outer loop
      vertex -8.128 14.0781 4.064
      vertex -12.0706 14.0302 4.064
      vertex -10.8774 12.0806 4.064
    endloop
  endfacet
  facet normal 0 -0 1
    outer loop
      vertex -12.0706 14.0302 4.064
      vertex -9.378 16.2432 4.064
      vertex -12.2193 14.1789 4.064
    endloop
  endfacet
  facet normal 0 0 1
    outer loop
      vertex 16.256 0 4.064
      vertex 18.756 0 4.064
      vertex 18.3461 3.89959 4.064
    endloop
  endfacet
  facet normal 0 0 1
    outer loop
      vertex 15.9008 3.37981 4.064
      vertex 18.3461 3.89959 4.064
      vertex 17.1345 7.62875 4.064
    endloop
  endfacet
  facet normal 0 0 1
    outer loop
      vertex 18.756 0 4.064
      vertex 16.256 0 4.064
      vertex 18.3461 -3.89959 4.064
    endloop
  endfacet
  facet normal -0 0 1
    outer loop
      vertex 15.9008 -3.37981 4.064
      vertex 18.3461 -3.89959 4.064
      vertex 16.256 0 4.064
    endloop
  endfacet
  facet normal 0 0 1
    outer loop
      vertex 18.3461 3.89959 4.064
      vertex 15.9008 3.37981 4.064
      vertex 16.256 0 4.064
    endloop
  endfacet
  facet normal 0 0 1
    outer loop
      vertex 14.8506 6.61191 4.064
      vertex 17.1345 7.62875 4.064
      vertex 15.1739 11.0245 4.064
    endloop
  endfacet
  facet normal 0 0 1
    outer loop
      vertex 17.1345 7.62875 4.064
      vertex 14.8506 6.61191 4.064
      vertex 15.9008 3.37981 4.064
    endloop
  endfacet
  facet normal -0 0 1
    outer loop
      vertex 14.0302 12.0706 4.064
      vertex 15.1739 11.0245 4.064
      vertex 14.1364 12.1768 4.064
    endloop
  endfacet
  facet normal 0 0 1
    outer loop
      vertex 15.1739 11.0245 4.064
      vertex 14.0302 12.0706 4.064
      vertex 13.1514 9.55504 4.064
    endloop
  endfacet
  facet normal 0 0 1
    outer loop
      vertex 15.1739 11.0245 4.064
      vertex 13.1514 9.55504 4.064
      vertex 14.8506 6.61191 4.064
    endloop
  endfacet
  facet normal 0 0 1
    outer loop
      vertex 12.4847 12.4847 4.064
      vertex 13.1514 9.55504 4.064
      vertex 14.0302 12.0706 4.064
    endloop
  endfacet
  facet normal 0 0 1
    outer loop
      vertex 10.8774 12.0806 4.064
      vertex 12.4847 12.4847 4.064
      vertex 12.0706 14.0302 4.064
    endloop
  endfacet
  facet normal 0 0 1
    outer loop
      vertex 12.4847 12.4847 4.064
      vertex 10.8774 12.0806 4.064
      vertex 13.1514 9.55504 4.064
    endloop
  endfacet
  facet normal 0 0 1
    outer loop
      vertex 18.3461 -3.89959 4.064
      vertex 15.9008 -3.37981 4.064
      vertex 17.1345 -7.62875 4.064
    endloop
  endfacet
  facet normal -0 0 1
    outer loop
      vertex 14.8506 -6.61191 4.064
      vertex 17.1345 -7.62875 4.064
      vertex 15.9008 -3.37981 4.064
    endloop
  endfacet
  facet normal 0 0 1
    outer loop
      vertex 17.1345 -7.62875 4.064
      vertex 14.8506 -6.61191 4.064
      vertex 15.1739 -11.0245 4.064
    endloop
  endfacet
  facet normal -0 0 1
    outer loop
      vertex 13.1514 -9.55504 4.064
      vertex 15.1739 -11.0245 4.064
      vertex 14.8506 -6.61191 4.064
    endloop
  endfacet
  facet normal 0 -0 1
    outer loop
      vertex 14.0302 -12.0706 4.064
      vertex 15.1739 -11.0245 4.064
      vertex 13.1514 -9.55504 4.064
    endloop
  endfacet
  facet normal 0 0 1
    outer loop
      vertex 15.1739 -11.0245 4.064
      vertex 14.0302 -12.0706 4.064
      vertex 14.1364 -12.1768 4.064
    endloop
  endfacet
  facet normal 0 0 1
    outer loop
      vertex 13.1514 -9.55504 4.064
      vertex 12.4847 -12.4847 4.064
      vertex 14.0302 -12.0706 4.064
    endloop
  endfacet
  facet normal -0 0 1
    outer loop
      vertex 10.8774 -12.0806 4.064
      vertex 12.4847 -12.4847 4.064
      vertex 13.1514 -9.55504 4.064
    endloop
  endfacet
  facet normal 0 0 1
    outer loop
      vertex 12.4847 -12.4847 4.064
      vertex 10.8774 -12.0806 4.064
      vertex 12.0706 -14.0302 4.064
    endloop
  endfacet
  facet normal 0 0 1
    outer loop
      vertex 12.0706 -14.0302 4.064
      vertex 9.378 -16.2432 4.064
      vertex 12.2193 -14.1789 4.064
    endloop
  endfacet
  facet normal 0 0 1
    outer loop
      vertex 8.128 -14.0781 4.064
      vertex 12.0706 -14.0302 4.064
      vertex 10.8774 -12.0806 4.064
    endloop
  endfacet
  facet normal 0 0 1
    outer loop
      vertex 12.0706 -14.0302 4.064
      vertex 8.128 -14.0781 4.064
      vertex 9.378 -16.2432 4.064
    endloop
  endfacet
  facet normal 0 0 1
    outer loop
      vertex 8.128 -14.0781 4.064
      vertex 5.79592 -17.838 4.064
      vertex 9.378 -16.2432 4.064
    endloop
  endfacet
  facet normal -0 0 1
    outer loop
      vertex 5.02338 -15.4604 4.064
      vertex 5.79592 -17.838 4.064
      vertex 8.128 -14.0781 4.064
    endloop
  endfacet
  facet normal 0 0 1
    outer loop
      vertex 5.02338 -15.4604 4.064
      vertex 1.96054 -18.6533 4.064
      vertex 5.79592 -17.838 4.064
    endloop
  endfacet
  facet normal -0 0 1
    outer loop
      vertex 1.69921 -16.1669 4.064
      vertex 1.96054 -18.6533 4.064
      vertex 5.02338 -15.4604 4.064
    endloop
  endfacet
  facet normal -0 0 1
    outer loop
      vertex -1.69921 -16.1669 4.064
      vertex 1.96054 -18.6533 4.064
      vertex 1.69921 -16.1669 4.064
    endloop
  endfacet
  facet normal 0 0 1
    outer loop
      vertex -1.69921 -16.1669 4.064
      vertex -1.96054 -18.6533 4.064
      vertex 1.96054 -18.6533 4.064
    endloop
  endfacet
  facet normal 0 0 1
    outer loop
      vertex -5.02338 -15.4604 4.064
      vertex -1.96054 -18.6533 4.064
      vertex -1.69921 -16.1669 4.064
    endloop
  endfacet
  facet normal 0 0 1
    outer loop
      vertex -5.02338 -15.4604 4.064
      vertex -5.79592 -17.838 4.064
      vertex -1.96054 -18.6533 4.064
    endloop
  endfacet
  facet normal 0 0 1
    outer loop
      vertex -8.128 -14.0781 4.064
      vertex -5.79592 -17.838 4.064
      vertex -5.02338 -15.4604 4.064
    endloop
  endfacet
  facet normal 0 0 1
    outer loop
      vertex -8.128 -14.0781 4.064
      vertex -9.378 -16.2432 4.064
      vertex -5.79592 -17.838 4.064
    endloop
  endfacet
  facet normal -0 0 1
    outer loop
      vertex -12.0706 -14.0302 4.064
      vertex -8.128 -14.0781 4.064
      vertex -10.8774 -12.0806 4.064
    endloop
  endfacet
  facet normal 0 0 1
    outer loop
      vertex -8.128 -14.0781 4.064
      vertex -12.0706 -14.0302 4.064
      vertex -9.378 -16.2432 4.064
    endloop
  endfacet
  facet normal 0 0 1
    outer loop
      vertex -9.378 -16.2432 4.064
      vertex -12.0706 -14.0302 4.064
      vertex -12.2193 -14.1789 4.064
    endloop
  endfacet
  facet normal 0 0 1
    outer loop
      vertex -10.8774 -12.0806 4.064
      vertex -12.4847 -12.4847 4.064
      vertex -12.0706 -14.0302 4.064
    endloop
  endfacet
  facet normal 0 0 1
    outer loop
      vertex -13.1514 -9.55504 4.064
      vertex -12.4847 -12.4847 4.064
      vertex -10.8774 -12.0806 4.064
    endloop
  endfacet
  facet normal 0 0 1
    outer loop
      vertex -13.1514 -9.55504 4.064
      vertex -14.0302 -12.0706 4.064
      vertex -12.4847 -12.4847 4.064
    endloop
  endfacet
  facet normal -0 0 1
    outer loop
      vertex -15.1739 -11.0245 4.064
      vertex -14.0302 -12.0706 4.064
      vertex -13.1514 -9.55504 4.064
    endloop
  endfacet
  facet normal 0 0 1
    outer loop
      vertex -15.1739 -11.0245 4.064
      vertex -13.1514 -9.55504 4.064
      vertex -14.8506 -6.61191 4.064
    endloop
  endfacet
  facet normal 0 0 1
    outer loop
      vertex -14.0302 -12.0706 4.064
      vertex -15.1739 -11.0245 4.064
      vertex -14.1364 -12.1768 4.064
    endloop
  endfacet
  facet normal 0 0 1
    outer loop
      vertex -17.1345 -7.62875 4.064
      vertex -14.8506 -6.61191 4.064
      vertex -15.9008 -3.37981 4.064
    endloop
  endfacet
  facet normal 0 0 1
    outer loop
      vertex -18.3461 -3.89959 4.064
      vertex -15.9008 -3.37981 4.064
      vertex -16.256 0 4.064
    endloop
  endfacet
  facet normal 0 0 1
    outer loop
      vertex -15.9008 3.37981 4.064
      vertex -18.3461 3.89959 4.064
      vertex -16.256 0 4.064
    endloop
  endfacet
  facet normal 0 0 1
    outer loop
      vertex -14.8506 -6.61191 4.064
      vertex -17.1345 -7.62875 4.064
      vertex -15.1739 -11.0245 4.064
    endloop
  endfacet
  facet normal 0 0 1
    outer loop
      vertex -18.756 0 4.064
      vertex -16.256 0 4.064
      vertex -18.3461 3.89959 4.064
    endloop
  endfacet
  facet normal 0 0 1
    outer loop
      vertex -15.9008 -3.37981 4.064
      vertex -18.3461 -3.89959 4.064
      vertex -17.1345 -7.62875 4.064
    endloop
  endfacet
  facet normal 0 0 1
    outer loop
      vertex -16.256 0 4.064
      vertex -18.756 0 4.064
      vertex -18.3461 -3.89959 4.064
    endloop
  endfacet
  facet normal -0 0 1
    outer loop
      vertex -12.4847 12.4847 4.064
      vertex -10.8774 12.0806 4.064
      vertex -12.0706 14.0302 4.064
    endloop
  endfacet
  facet normal 0 0 1
    outer loop
      vertex -12.4847 12.4847 4.064
      vertex -13.1514 9.55504 4.064
      vertex -10.8774 12.0806 4.064
    endloop
  endfacet
  facet normal -0 0 1
    outer loop
      vertex -14.0302 12.0706 4.064
      vertex -13.1514 9.55504 4.064
      vertex -12.4847 12.4847 4.064
    endloop
  endfacet
  facet normal 0 0 1
    outer loop
      vertex -15.1739 11.0245 4.064
      vertex -14.0302 12.0706 4.064
      vertex -14.1364 12.1768 4.064
    endloop
  endfacet
  facet normal 0 0 1
    outer loop
      vertex -14.0302 12.0706 4.064
      vertex -15.1739 11.0245 4.064
      vertex -13.1514 9.55504 4.064
    endloop
  endfacet
  facet normal 0 0 1
    outer loop
      vertex -13.1514 9.55504 4.064
      vertex -15.1739 11.0245 4.064
      vertex -14.8506 6.61191 4.064
    endloop
  endfacet
  facet normal -0 0 1
    outer loop
      vertex -17.1345 7.62875 4.064
      vertex -14.8506 6.61191 4.064
      vertex -15.1739 11.0245 4.064
    endloop
  endfacet
  facet normal 0 0 1
    outer loop
      vertex -14.8506 6.61191 4.064
      vertex -17.1345 7.62875 4.064
      vertex -15.9008 3.37981 4.064
    endloop
  endfacet
  facet normal -0 0 1
    outer loop
      vertex -18.3461 3.89959 4.064
      vertex -15.9008 3.37981 4.064
      vertex -17.1345 7.62875 4.064
    endloop
  endfacet
  facet normal -0.587781 0.80902 0
    outer loop
      vertex -9.378 16.2432 4.064
      vertex -12.2193 14.1789 2.032
      vertex -12.2193 14.1789 4.064
    endloop
  endfacet
  facet normal -0.587781 0.80902 0
    outer loop
      vertex -9.378 16.2432 1.016
      vertex -12.2193 14.1789 2.032
      vertex -9.378 16.2432 4.064
    endloop
  endfacet
  facet normal -0.587796 0.809009 -6.42046e-05
    outer loop
      vertex -12.5502 13.9384 1.016
      vertex -12.2193 14.1789 2.032
      vertex -9.378 16.2432 1.016
    endloop
  endfacet
  facet normal -0.587925 0.808916 0
    outer loop
      vertex -12.2193 14.1789 2.032
      vertex -12.5502 13.9384 1.016
      vertex -12.5502 13.9384 2.032
    endloop
  endfacet
  facet normal -0.207928 0.978144 0
    outer loop
      vertex -1.96054 18.6533 1.016
      vertex -5.79592 17.838 4.064
      vertex -1.96054 18.6533 4.064
    endloop
  endfacet
  facet normal -0.207928 0.978144 0
    outer loop
      vertex -5.79592 17.838 4.064
      vertex -1.96054 18.6533 1.016
      vertex -5.79592 17.838 1.016
    endloop
  endfacet
  facet normal 0 0 -1
    outer loop
      vertex 16.256 0 0
      vertex 20.256 0 0
      vertex 19.8134 -4.21146 0
    endloop
  endfacet
  facet normal 0 0 -1
    outer loop
      vertex 15.9008 -3.37981 0
      vertex 19.8134 -4.21146 0
      vertex 18.5048 -8.23886 0
    endloop
  endfacet
  facet normal 0 0 -1
    outer loop
      vertex 20.256 0 0
      vertex 16.256 0 0
      vertex 19.8134 4.21146 0
    endloop
  endfacet
  facet normal 0 0 -1
    outer loop
      vertex 14.8506 -6.61191 0
      vertex 18.5048 -8.23886 0
      vertex 16.3874 -11.9062 0
    endloop
  endfacet
  facet normal 0 0 -1
    outer loop
      vertex 15.9008 3.37981 0
      vertex 19.8134 4.21146 0
      vertex 16.256 0 0
    endloop
  endfacet
  facet normal -0 0 -1
    outer loop
      vertex 19.8134 4.21146 0
      vertex 15.9008 3.37981 0
      vertex 18.5048 8.23886 0
    endloop
  endfacet
  facet normal 0 0 -1
    outer loop
      vertex 19.8134 -4.21146 0
      vertex 15.9008 -3.37981 0
      vertex 16.256 0 0
    endloop
  endfacet
  facet normal 0 0 -1
    outer loop
      vertex 18.5048 -8.23886 0
      vertex 14.8506 -6.61191 0
      vertex 15.9008 -3.37981 0
    endloop
  endfacet
  facet normal 0 0 -1
    outer loop
      vertex 13.1514 -9.55504 0
      vertex 16.3874 -11.9062 0
      vertex 13.5539 -15.0531 0
    endloop
  endfacet
  facet normal 0 0 -1
    outer loop
      vertex 16.3874 -11.9062 0
      vertex 13.1514 -9.55504 0
      vertex 14.8506 -6.61191 0
    endloop
  endfacet
  facet normal 0 0 -1
    outer loop
      vertex 13.5539 -15.0531 0
      vertex 10.8774 -12.0806 0
      vertex 13.1514 -9.55504 0
    endloop
  endfacet
  facet normal 0 0 -1
    outer loop
      vertex 10.128 -17.5422 0
      vertex 10.8774 -12.0806 0
      vertex 13.5539 -15.0531 0
    endloop
  endfacet
  facet normal 0 0 -1
    outer loop
      vertex 10.128 -17.5422 0
      vertex 8.128 -14.0781 0
      vertex 10.8774 -12.0806 0
    endloop
  endfacet
  facet normal 0 0 -1
    outer loop
      vertex 6.25945 -19.2646 0
      vertex 8.128 -14.0781 0
      vertex 10.128 -17.5422 0
    endloop
  endfacet
  facet normal 0 0 -1
    outer loop
      vertex 6.25945 -19.2646 0
      vertex 5.02338 -15.4604 0
      vertex 8.128 -14.0781 0
    endloop
  endfacet
  facet normal 0 0 -1
    outer loop
      vertex 2.11733 -20.145 0
      vertex 5.02338 -15.4604 0
      vertex 6.25945 -19.2646 0
    endloop
  endfacet
  facet normal 0 0 -1
    outer loop
      vertex 2.11733 -20.145 0
      vertex 1.69921 -16.1669 0
      vertex 5.02338 -15.4604 0
    endloop
  endfacet
  facet normal 0 0 -1
    outer loop
      vertex 2.11733 -20.145 0
      vertex -1.69921 -16.1669 0
      vertex 1.69921 -16.1669 0
    endloop
  endfacet
  facet normal 0 0 -1
    outer loop
      vertex -2.11733 -20.145 0
      vertex -1.69921 -16.1669 0
      vertex 2.11733 -20.145 0
    endloop
  endfacet
  facet normal 0 0 -1
    outer loop
      vertex -2.11733 -20.145 0
      vertex -5.02338 -15.4604 0
      vertex -1.69921 -16.1669 0
    endloop
  endfacet
  facet normal 0 0 -1
    outer loop
      vertex -6.25945 -19.2646 0
      vertex -5.02338 -15.4604 0
      vertex -2.11733 -20.145 0
    endloop
  endfacet
  facet normal 0 0 -1
    outer loop
      vertex -6.25945 -19.2646 0
      vertex -8.128 -14.0781 0
      vertex -5.02338 -15.4604 0
    endloop
  endfacet
  facet normal 0 0 -1
    outer loop
      vertex -10.128 -17.5422 0
      vertex -8.128 -14.0781 0
      vertex -6.25945 -19.2646 0
    endloop
  endfacet
  facet normal 0 0 -1
    outer loop
      vertex -10.128 -17.5422 0
      vertex -10.8774 -12.0806 0
      vertex -8.128 -14.0781 0
    endloop
  endfacet
  facet normal 0 0 -1
    outer loop
      vertex -13.5539 -15.0531 0
      vertex -10.8774 -12.0806 0
      vertex -10.128 -17.5422 0
    endloop
  endfacet
  facet normal -0 0 -1
    outer loop
      vertex -10.8774 -12.0806 0
      vertex -13.5539 -15.0531 0
      vertex -13.1514 -9.55504 0
    endloop
  endfacet
  facet normal 0 0 -1
    outer loop
      vertex -16.3874 -11.9062 0
      vertex -13.1514 -9.55504 0
      vertex -13.5539 -15.0531 0
    endloop
  endfacet
  facet normal -0 0 -1
    outer loop
      vertex -13.1514 -9.55504 0
      vertex -16.3874 -11.9062 0
      vertex -14.8506 -6.61191 0
    endloop
  endfacet
  facet normal -0 0 -1
    outer loop
      vertex -14.8506 -6.61191 0
      vertex -18.5048 -8.23886 0
      vertex -15.9008 -3.37981 0
    endloop
  endfacet
  facet normal 0 0 -1
    outer loop
      vertex -18.5048 -8.23886 0
      vertex -14.8506 -6.61191 0
      vertex -16.3874 -11.9062 0
    endloop
  endfacet
  facet normal 0 0 -1
    outer loop
      vertex 14.8506 6.61191 0
      vertex 18.5048 8.23886 0
      vertex 15.9008 3.37981 0
    endloop
  endfacet
  facet normal -0 0 -1
    outer loop
      vertex 18.5048 8.23886 0
      vertex 14.8506 6.61191 0
      vertex 16.3874 11.9062 0
    endloop
  endfacet
  facet normal 0 0 -1
    outer loop
      vertex 13.1514 9.55504 0
      vertex 16.3874 11.9062 0
      vertex 14.8506 6.61191 0
    endloop
  endfacet
  facet normal -0 0 -1
    outer loop
      vertex 16.3874 11.9062 0
      vertex 13.1514 9.55504 0
      vertex 13.5539 15.0531 0
    endloop
  endfacet
  facet normal 0 0 -1
    outer loop
      vertex 10.8774 12.0806 0
      vertex 13.5539 15.0531 0
      vertex 13.1514 9.55504 0
    endloop
  endfacet
  facet normal 0 0 -1
    outer loop
      vertex 10.8774 12.0806 0
      vertex 10.128 17.5422 0
      vertex 13.5539 15.0531 0
    endloop
  endfacet
  facet normal 0 0 -1
    outer loop
      vertex 8.128 14.0781 0
      vertex 10.128 17.5422 0
      vertex 10.8774 12.0806 0
    endloop
  endfacet
  facet normal 0 0 -1
    outer loop
      vertex 8.128 14.0781 0
      vertex 6.25945 19.2646 0
      vertex 10.128 17.5422 0
    endloop
  endfacet
  facet normal 0 0 -1
    outer loop
      vertex 5.02338 15.4604 0
      vertex 6.25945 19.2646 0
      vertex 8.128 14.0781 0
    endloop
  endfacet
  facet normal 0 0 -1
    outer loop
      vertex 5.02338 15.4604 0
      vertex 2.11733 20.145 0
      vertex 6.25945 19.2646 0
    endloop
  endfacet
  facet normal 0 0 -1
    outer loop
      vertex 1.69921 16.1669 0
      vertex 2.11733 20.145 0
      vertex 5.02338 15.4604 0
    endloop
  endfacet
  facet normal 0 0 -1
    outer loop
      vertex -1.69921 16.1669 0
      vertex 2.11733 20.145 0
      vertex 1.69921 16.1669 0
    endloop
  endfacet
  facet normal 0 0 -1
    outer loop
      vertex -1.69921 16.1669 0
      vertex -2.11733 20.145 0
      vertex 2.11733 20.145 0
    endloop
  endfacet
  facet normal 0 0 -1
    outer loop
      vertex -5.02338 15.4604 0
      vertex -2.11733 20.145 0
      vertex -1.69921 16.1669 0
    endloop
  endfacet
  facet normal 0 0 -1
    outer loop
      vertex -5.02338 15.4604 0
      vertex -6.25945 19.2646 0
      vertex -2.11733 20.145 0
    endloop
  endfacet
  facet normal 0 0 -1
    outer loop
      vertex -8.128 14.0781 0
      vertex -6.25945 19.2646 0
      vertex -5.02338 15.4604 0
    endloop
  endfacet
  facet normal 0 0 -1
    outer loop
      vertex -8.128 14.0781 0
      vertex -10.128 17.5422 0
      vertex -6.25945 19.2646 0
    endloop
  endfacet
  facet normal 0 0 -1
    outer loop
      vertex -10.8774 12.0806 0
      vertex -10.128 17.5422 0
      vertex -8.128 14.0781 0
    endloop
  endfacet
  facet normal 0 0 -1
    outer loop
      vertex -13.5539 15.0531 0
      vertex -10.8774 12.0806 0
      vertex -13.1514 9.55504 0
    endloop
  endfacet
  facet normal 0 0 -1
    outer loop
      vertex -10.8774 12.0806 0
      vertex -13.5539 15.0531 0
      vertex -10.128 17.5422 0
    endloop
  endfacet
  facet normal 0 0 -1
    outer loop
      vertex -16.3874 11.9062 0
      vertex -13.1514 9.55504 0
      vertex -14.8506 6.61191 0
    endloop
  endfacet
  facet normal 0 0 -1
    outer loop
      vertex -18.5048 8.23886 0
      vertex -14.8506 6.61191 0
      vertex -15.9008 3.37981 0
    endloop
  endfacet
  facet normal 0 0 -1
    outer loop
      vertex -13.1514 9.55504 0
      vertex -16.3874 11.9062 0
      vertex -13.5539 15.0531 0
    endloop
  endfacet
  facet normal 0 0 -1
    outer loop
      vertex -19.8134 4.21146 0
      vertex -15.9008 3.37981 0
      vertex -16.256 0 0
    endloop
  endfacet
  facet normal 0 0 -1
    outer loop
      vertex -19.8134 -4.21146 0
      vertex -15.9008 -3.37981 0
      vertex -18.5048 -8.23886 0
    endloop
  endfacet
  facet normal -0 0 -1
    outer loop
      vertex -15.9008 -3.37981 0
      vertex -19.8134 -4.21146 0
      vertex -16.256 0 0
    endloop
  endfacet
  facet normal 0 0 -1
    outer loop
      vertex -14.8506 6.61191 0
      vertex -18.5048 8.23886 0
      vertex -16.3874 11.9062 0
    endloop
  endfacet
  facet normal 0 0 -1
    outer loop
      vertex -20.256 0 0
      vertex -16.256 0 0
      vertex -19.8134 -4.21146 0
    endloop
  endfacet
  facet normal 0 0 -1
    outer loop
      vertex -15.9008 3.37981 0
      vertex -19.8134 4.21146 0
      vertex -18.5048 8.23886 0
    endloop
  endfacet
  facet normal 0 0 -1
    outer loop
      vertex -16.256 0 0
      vertex -20.256 0 0
      vertex -19.8134 4.21146 0
    endloop
  endfacet
  facet normal 0.207928 -0.978144 0
    outer loop
      vertex 1.96054 -18.6533 1.016
      vertex 5.79592 -17.838 4.064
      vertex 1.96054 -18.6533 4.064
    endloop
  endfacet
  facet normal 0.207928 -0.978144 0
    outer loop
      vertex 5.79592 -17.838 4.064
      vertex 1.96054 -18.6533 1.016
      vertex 5.79592 -17.838 1.016
    endloop
  endfacet
  facet normal 0.951062 -0.308999 0
    outer loop
      vertex 17.1345 -7.62875 4.064
      vertex 18.3461 -3.89959 1.016
      vertex 18.3461 -3.89959 4.064
    endloop
  endfacet
  facet normal 0.951062 -0.308999 0
    outer loop
      vertex 18.3461 -3.89959 1.016
      vertex 17.1345 -7.62875 4.064
      vertex 17.1345 -7.62875 1.016
    endloop
  endfacet
  facet normal 0.994522 -0.104524 0
    outer loop
      vertex 18.756 0 4.064
      vertex 18.6509 -1 2.032
      vertex 18.756 0 2.032
    endloop
  endfacet
  facet normal 0.994521 -0.104538 6.66334e-06
    outer loop
      vertex 18.3461 -3.89959 4.064
      vertex 18.6509 -1 2.032
      vertex 18.756 0 4.064
    endloop
  endfacet
  facet normal 0.99452 -0.104542 0
    outer loop
      vertex 18.3461 -3.89959 1.016
      vertex 18.6509 -1 2.032
      vertex 18.3461 -3.89959 4.064
    endloop
  endfacet
  facet normal 0.99452 -0.104542 0
    outer loop
      vertex 18.6509 -1 2.032
      vertex 18.3461 -3.89959 1.016
      vertex 18.6509 -1 1.016
    endloop
  endfacet
  facet normal -0.866018 -0.500012 0
    outer loop
      vertex -15.1739 -11.0245 1.016
      vertex -17.1345 -7.62875 4.064
      vertex -17.1345 -7.62875 1.016
    endloop
  endfacet
  facet normal -0.866018 -0.500012 0
    outer loop
      vertex -17.1345 -7.62875 4.064
      vertex -15.1739 -11.0245 1.016
      vertex -15.1739 -11.0245 4.064
    endloop
  endfacet
  facet normal 0.587781 -0.80902 0
    outer loop
      vertex 9.378 -16.2432 4.064
      vertex 12.2193 -14.1789 2.032
      vertex 12.2193 -14.1789 4.064
    endloop
  endfacet
  facet normal 0.587781 -0.80902 0
    outer loop
      vertex 9.378 -16.2432 1.016
      vertex 12.2193 -14.1789 2.032
      vertex 9.378 -16.2432 4.064
    endloop
  endfacet
  facet normal 0.587796 -0.809009 -6.42046e-05
    outer loop
      vertex 12.5502 -13.9384 1.016
      vertex 12.2193 -14.1789 2.032
      vertex 9.378 -16.2432 1.016
    endloop
  endfacet
  facet normal 0.587925 -0.808916 0
    outer loop
      vertex 12.2193 -14.1789 2.032
      vertex 12.5502 -13.9384 1.016
      vertex 12.5502 -13.9384 2.032
    endloop
  endfacet
  facet normal 0.406727 -0.91355 0
    outer loop
      vertex 5.79592 -17.838 1.016
      vertex 9.378 -16.2432 4.064
      vertex 5.79592 -17.838 4.064
    endloop
  endfacet
  facet normal 0.406727 -0.91355 0
    outer loop
      vertex 9.378 -16.2432 4.064
      vertex 5.79592 -17.838 1.016
      vertex 9.378 -16.2432 1.016
    endloop
  endfacet
  facet normal -0.743156 -0.669118 0
    outer loop
      vertex -15.1739 -11.0245 1.016
      vertex -14.1364 -12.1768 2.032
      vertex -15.1739 -11.0245 4.064
    endloop
  endfacet
  facet normal -0.743143 -0.669132 -2.96853e-05
    outer loop
      vertex -12.5502 -13.9384 1.016
      vertex -14.1364 -12.1768 2.032
      vertex -15.1739 -11.0245 1.016
    endloop
  endfacet
  facet normal -0.743135 -0.669142 0
    outer loop
      vertex -14.1364 -12.1768 2.032
      vertex -12.5502 -13.9384 1.016
      vertex -12.5502 -13.9384 2.032
    endloop
  endfacet
  facet normal -0.743156 -0.669118 0
    outer loop
      vertex -15.1739 -11.0245 4.064
      vertex -14.1364 -12.1768 2.032
      vertex -14.1364 -12.1768 4.064
    endloop
  endfacet
  facet normal -0.951062 -0.308999 0
    outer loop
      vertex -17.1345 -7.62875 1.016
      vertex -18.3461 -3.89959 4.064
      vertex -18.3461 -3.89959 1.016
    endloop
  endfacet
  facet normal -0.951062 -0.308999 0
    outer loop
      vertex -18.3461 -3.89959 4.064
      vertex -17.1345 -7.62875 1.016
      vertex -17.1345 -7.62875 4.064
    endloop
  endfacet
  facet normal -0.994521 -0.104538 0
    outer loop
      vertex -18.3461 -3.89959 1.016
      vertex -18.756 0 4.064
      vertex -18.756 0 1.016
    endloop
  endfacet
  facet normal -0.994521 -0.104538 0
    outer loop
      vertex -18.756 0 4.064
      vertex -18.3461 -3.89959 1.016
      vertex -18.3461 -3.89959 4.064
    endloop
  endfacet
  facet normal 0.743156 -0.669118 0
    outer loop
      vertex 14.1364 -12.1768 2.032
      vertex 15.1739 -11.0245 4.064
      vertex 14.1364 -12.1768 4.064
    endloop
  endfacet
  facet normal 0.743156 -0.669118 0
    outer loop
      vertex 15.1739 -11.0245 4.064
      vertex 14.1364 -12.1768 2.032
      vertex 15.1739 -11.0245 1.016
    endloop
  endfacet
  facet normal 0.743135 -0.669142 0
    outer loop
      vertex 12.5502 -13.9384 1.016
      vertex 14.1364 -12.1768 2.032
      vertex 12.5502 -13.9384 2.032
    endloop
  endfacet
  facet normal 0.743143 -0.669132 -2.96853e-05
    outer loop
      vertex 14.1364 -12.1768 2.032
      vertex 12.5502 -13.9384 1.016
      vertex 15.1739 -11.0245 1.016
    endloop
  endfacet
  facet normal -0.587925 -0.808916 -0
    outer loop
      vertex -12.5502 -13.9384 2.032
      vertex -12.5502 -13.9384 1.016
      vertex -12.2193 -14.1789 2.032
    endloop
  endfacet
  facet normal -0.587781 -0.80902 0
    outer loop
      vertex -12.2193 -14.1789 2.032
      vertex -9.378 -16.2432 4.064
      vertex -12.2193 -14.1789 4.064
    endloop
  endfacet
  facet normal -0.587796 -0.809009 -6.42046e-05
    outer loop
      vertex -9.378 -16.2432 1.016
      vertex -12.2193 -14.1789 2.032
      vertex -12.5502 -13.9384 1.016
    endloop
  endfacet
  facet normal -0.587781 -0.80902 0
    outer loop
      vertex -12.2193 -14.1789 2.032
      vertex -9.378 -16.2432 1.016
      vertex -9.378 -16.2432 4.064
    endloop
  endfacet
  facet normal -0.406727 -0.91355 0
    outer loop
      vertex -9.378 -16.2432 1.016
      vertex -5.79592 -17.838 4.064
      vertex -9.378 -16.2432 4.064
    endloop
  endfacet
  facet normal -0.406727 -0.91355 -0
    outer loop
      vertex -5.79592 -17.838 4.064
      vertex -9.378 -16.2432 1.016
      vertex -5.79592 -17.838 1.016
    endloop
  endfacet
  facet normal -0.207928 -0.978144 0
    outer loop
      vertex -5.79592 -17.838 1.016
      vertex -1.96054 -18.6533 4.064
      vertex -5.79592 -17.838 4.064
    endloop
  endfacet
  facet normal -0.207928 -0.978144 -0
    outer loop
      vertex -1.96054 -18.6533 4.064
      vertex -5.79592 -17.838 1.016
      vertex -1.96054 -18.6533 1.016
    endloop
  endfacet
  facet normal 0.994523 0.104519 0
    outer loop
      vertex 20.256 0 1.016
      vertex 19.8134 4.21146 0
      vertex 19.8134 4.21146 1.016
    endloop
  endfacet
  facet normal 0.994523 0.104519 0
    outer loop
      vertex 19.8134 4.21146 0
      vertex 20.256 0 1.016
      vertex 20.256 0 0
    endloop
  endfacet
  facet normal -0.994523 0.104519 0
    outer loop
      vertex -20.256 0 0
      vertex -19.8134 4.21146 1.016
      vertex -19.8134 4.21146 0
    endloop
  endfacet
  facet normal -0.994523 0.104519 0
    outer loop
      vertex -19.8134 4.21146 1.016
      vertex -20.256 0 0
      vertex -20.256 0 1.016
    endloop
  endfacet
  facet normal 0 1 -0
    outer loop
      vertex 2.11733 20.145 0
      vertex -2.11733 20.145 1.016
      vertex 2.11733 20.145 1.016
    endloop
  endfacet
  facet normal 0 1 0
    outer loop
      vertex -2.11733 20.145 1.016
      vertex 2.11733 20.145 0
      vertex -2.11733 20.145 0
    endloop
  endfacet
  facet normal 0 -1 0
    outer loop
      vertex -2.11733 -20.145 0
      vertex 2.11733 -20.145 1.016
      vertex -2.11733 -20.145 1.016
    endloop
  endfacet
  facet normal 0 -1 -0
    outer loop
      vertex 2.11733 -20.145 1.016
      vertex -2.11733 -20.145 0
      vertex 2.11733 -20.145 0
    endloop
  endfacet
  facet normal 0.587791 0.809013 -0
    outer loop
      vertex 13.5539 15.0531 0
      vertex 10.128 17.5422 1.016
      vertex 13.5539 15.0531 1.016
    endloop
  endfacet
  facet normal 0.587791 0.809013 0
    outer loop
      vertex 10.128 17.5422 1.016
      vertex 13.5539 15.0531 0
      vertex 10.128 17.5422 0
    endloop
  endfacet
  facet normal 0.406739 0.913545 -0
    outer loop
      vertex 10.128 17.5422 0
      vertex 6.25945 19.2646 1.016
      vertex 10.128 17.5422 1.016
    endloop
  endfacet
  facet normal 0.406739 0.913545 0
    outer loop
      vertex 6.25945 19.2646 1.016
      vertex 10.128 17.5422 0
      vertex 6.25945 19.2646 0
    endloop
  endfacet
  facet normal -0.587791 0.809013 0
    outer loop
      vertex -10.128 17.5422 0
      vertex -13.5539 15.0531 1.016
      vertex -10.128 17.5422 1.016
    endloop
  endfacet
  facet normal -0.587791 0.809013 0
    outer loop
      vertex -13.5539 15.0531 1.016
      vertex -10.128 17.5422 0
      vertex -13.5539 15.0531 0
    endloop
  endfacet
  facet normal -0.207904 0.978149 0
    outer loop
      vertex -2.11733 20.145 0
      vertex -6.25945 19.2646 1.016
      vertex -2.11733 20.145 1.016
    endloop
  endfacet
  facet normal -0.207904 0.978149 0
    outer loop
      vertex -6.25945 19.2646 1.016
      vertex -2.11733 20.145 0
      vertex -6.25945 19.2646 0
    endloop
  endfacet
  facet normal 0.951055 -0.309021 0
    outer loop
      vertex 18.5048 -8.23886 1.016
      vertex 19.8134 -4.21146 0
      vertex 19.8134 -4.21146 1.016
    endloop
  endfacet
  facet normal 0.951055 -0.309021 0
    outer loop
      vertex 19.8134 -4.21146 0
      vertex 18.5048 -8.23886 1.016
      vertex 18.5048 -8.23886 0
    endloop
  endfacet
  facet normal 0.866019 0.500011 0
    outer loop
      vertex 18.5048 8.23886 1.016
      vertex 16.3874 11.9062 0
      vertex 16.3874 11.9062 1.016
    endloop
  endfacet
  facet normal 0.866019 0.500011 0
    outer loop
      vertex 16.3874 11.9062 0
      vertex 18.5048 8.23886 1.016
      vertex 18.5048 8.23886 0
    endloop
  endfacet
  facet normal 0.951055 0.309021 0
    outer loop
      vertex 19.8134 4.21146 1.016
      vertex 18.5048 8.23886 0
      vertex 18.5048 8.23886 1.016
    endloop
  endfacet
  facet normal 0.951055 0.309021 0
    outer loop
      vertex 18.5048 8.23886 0
      vertex 19.8134 4.21146 1.016
      vertex 19.8134 4.21146 0
    endloop
  endfacet
  facet normal 0.743143 0.669133 0
    outer loop
      vertex 16.3874 11.9062 1.016
      vertex 13.5539 15.0531 0
      vertex 13.5539 15.0531 1.016
    endloop
  endfacet
  facet normal 0.743143 0.669133 0
    outer loop
      vertex 13.5539 15.0531 0
      vertex 16.3874 11.9062 1.016
      vertex 16.3874 11.9062 0
    endloop
  endfacet
  facet normal 0.207904 0.978149 -0
    outer loop
      vertex 6.25945 19.2646 0
      vertex 2.11733 20.145 1.016
      vertex 6.25945 19.2646 1.016
    endloop
  endfacet
  facet normal 0.207904 0.978149 0
    outer loop
      vertex 2.11733 20.145 1.016
      vertex 6.25945 19.2646 0
      vertex 2.11733 20.145 0
    endloop
  endfacet
  facet normal -0.866019 0.500011 0
    outer loop
      vertex -18.5048 8.23886 0
      vertex -16.3874 11.9062 1.016
      vertex -16.3874 11.9062 0
    endloop
  endfacet
  facet normal -0.866019 0.500011 0
    outer loop
      vertex -16.3874 11.9062 1.016
      vertex -18.5048 8.23886 0
      vertex -18.5048 8.23886 1.016
    endloop
  endfacet
  facet normal -0.743143 0.669133 0
    outer loop
      vertex -16.3874 11.9062 0
      vertex -13.5539 15.0531 1.016
      vertex -13.5539 15.0531 0
    endloop
  endfacet
  facet normal -0.743143 0.669133 0
    outer loop
      vertex -13.5539 15.0531 1.016
      vertex -16.3874 11.9062 0
      vertex -16.3874 11.9062 1.016
    endloop
  endfacet
  facet normal -0.951055 0.309021 0
    outer loop
      vertex -19.8134 4.21146 0
      vertex -18.5048 8.23886 1.016
      vertex -18.5048 8.23886 0
    endloop
  endfacet
  facet normal -0.951055 0.309021 0
    outer loop
      vertex -18.5048 8.23886 1.016
      vertex -19.8134 4.21146 0
      vertex -19.8134 4.21146 1.016
    endloop
  endfacet
  facet normal -0 0 1
    outer loop
      vertex 19.756 1 1.016
      vertex 20.256 0 1.016
      vertex 19.8134 4.21146 1.016
    endloop
  endfacet
  facet normal 0 0 1
    outer loop
      vertex 19.756 -1 1.016
      vertex 20.256 0 1.016
      vertex 19.756 1 1.016
    endloop
  endfacet
  facet normal -0 0 1
    outer loop
      vertex 18.3461 3.89959 1.016
      vertex 19.756 1 1.016
      vertex 19.8134 4.21146 1.016
    endloop
  endfacet
  facet normal 0 0 1
    outer loop
      vertex 18.3461 3.89959 1.016
      vertex 19.8134 4.21146 1.016
      vertex 18.5048 8.23886 1.016
    endloop
  endfacet
  facet normal 0 0 1
    outer loop
      vertex 19.756 1 1.016
      vertex 18.3461 3.89959 1.016
      vertex 18.6509 1 1.016
    endloop
  endfacet
  facet normal 0 0 1
    outer loop
      vertex 18.5048 8.23886 1.016
      vertex 17.1345 7.62875 1.016
      vertex 18.3461 3.89959 1.016
    endloop
  endfacet
  facet normal 0 0 1
    outer loop
      vertex 16.3874 11.9062 1.016
      vertex 17.1345 7.62875 1.016
      vertex 18.5048 8.23886 1.016
    endloop
  endfacet
  facet normal 0 0 1
    outer loop
      vertex 16.3874 11.9062 1.016
      vertex 15.1739 11.0245 1.016
      vertex 17.1345 7.62875 1.016
    endloop
  endfacet
  facet normal 0 0 1
    outer loop
      vertex 13.5539 15.0531 1.016
      vertex 15.1739 11.0245 1.016
      vertex 16.3874 11.9062 1.016
    endloop
  endfacet
  facet normal 0 0 1
    outer loop
      vertex 13.5539 15.0531 1.016
      vertex 12.5502 13.9384 1.016
      vertex 15.1739 11.0245 1.016
    endloop
  endfacet
  facet normal 0 0 1
    outer loop
      vertex 10.128 17.5422 1.016
      vertex 12.5502 13.9384 1.016
      vertex 13.5539 15.0531 1.016
    endloop
  endfacet
  facet normal 0 0 1
    outer loop
      vertex 10.128 17.5422 1.016
      vertex 9.378 16.2432 1.016
      vertex 12.5502 13.9384 1.016
    endloop
  endfacet
  facet normal 0 0 1
    outer loop
      vertex 6.25945 19.2646 1.016
      vertex 9.378 16.2432 1.016
      vertex 10.128 17.5422 1.016
    endloop
  endfacet
  facet normal 0 0 1
    outer loop
      vertex 6.25945 19.2646 1.016
      vertex 5.79592 17.838 1.016
      vertex 9.378 16.2432 1.016
    endloop
  endfacet
  facet normal 0 0 1
    outer loop
      vertex 2.11733 20.145 1.016
      vertex 5.79592 17.838 1.016
      vertex 6.25945 19.2646 1.016
    endloop
  endfacet
  facet normal 0 0 1
    outer loop
      vertex 2.11733 20.145 1.016
      vertex 1.96054 18.6533 1.016
      vertex 5.79592 17.838 1.016
    endloop
  endfacet
  facet normal 0 0 1
    outer loop
      vertex 2.11733 20.145 1.016
      vertex -1.96054 18.6533 1.016
      vertex 1.96054 18.6533 1.016
    endloop
  endfacet
  facet normal -0 0 1
    outer loop
      vertex -2.11733 20.145 1.016
      vertex -1.96054 18.6533 1.016
      vertex 2.11733 20.145 1.016
    endloop
  endfacet
  facet normal 0 0 1
    outer loop
      vertex -2.11733 20.145 1.016
      vertex -5.79592 17.838 1.016
      vertex -1.96054 18.6533 1.016
    endloop
  endfacet
  facet normal -0 0 1
    outer loop
      vertex -6.25945 19.2646 1.016
      vertex -5.79592 17.838 1.016
      vertex -2.11733 20.145 1.016
    endloop
  endfacet
  facet normal 0 0 1
    outer loop
      vertex -6.25945 19.2646 1.016
      vertex -9.378 16.2432 1.016
      vertex -5.79592 17.838 1.016
    endloop
  endfacet
  facet normal -0 0 1
    outer loop
      vertex -10.128 17.5422 1.016
      vertex -9.378 16.2432 1.016
      vertex -6.25945 19.2646 1.016
    endloop
  endfacet
  facet normal 0 0 1
    outer loop
      vertex -10.128 17.5422 1.016
      vertex -12.5502 13.9384 1.016
      vertex -9.378 16.2432 1.016
    endloop
  endfacet
  facet normal -0 0 1
    outer loop
      vertex -13.5539 15.0531 1.016
      vertex -12.5502 13.9384 1.016
      vertex -10.128 17.5422 1.016
    endloop
  endfacet
  facet normal 0 0 1
    outer loop
      vertex -13.5539 15.0531 1.016
      vertex -15.1739 11.0245 1.016
      vertex -12.5502 13.9384 1.016
    endloop
  endfacet
  facet normal -0 0 1
    outer loop
      vertex -16.3874 11.9062 1.016
      vertex -15.1739 11.0245 1.016
      vertex -13.5539 15.0531 1.016
    endloop
  endfacet
  facet normal 0 0 1
    outer loop
      vertex -16.3874 11.9062 1.016
      vertex -17.1345 7.62875 1.016
      vertex -15.1739 11.0245 1.016
    endloop
  endfacet
  facet normal -0 0 1
    outer loop
      vertex -18.5048 8.23886 1.016
      vertex -17.1345 7.62875 1.016
      vertex -16.3874 11.9062 1.016
    endloop
  endfacet
  facet normal 0 0 1
    outer loop
      vertex -17.1345 7.62875 1.016
      vertex -18.5048 8.23886 1.016
      vertex -18.3461 3.89959 1.016
    endloop
  endfacet
  facet normal -0 0 1
    outer loop
      vertex -19.8134 4.21146 1.016
      vertex -18.3461 3.89959 1.016
      vertex -18.5048 8.23886 1.016
    endloop
  endfacet
  facet normal 0 0 1
    outer loop
      vertex -18.3461 3.89959 1.016
      vertex -19.8134 4.21146 1.016
      vertex -18.756 0 1.016
    endloop
  endfacet
  facet normal 0 0 1
    outer loop
      vertex 20.256 0 1.016
      vertex 19.756 -1 1.016
      vertex 19.8134 -4.21146 1.016
    endloop
  endfacet
  facet normal 0 0 1
    outer loop
      vertex 18.3461 -3.89959 1.016
      vertex 19.756 -1 1.016
      vertex 18.6509 -1 1.016
    endloop
  endfacet
  facet normal 0 0 1
    outer loop
      vertex 19.756 -1 1.016
      vertex 18.3461 -3.89959 1.016
      vertex 19.8134 -4.21146 1.016
    endloop
  endfacet
  facet normal 0 0 1
    outer loop
      vertex 19.8134 -4.21146 1.016
      vertex 18.3461 -3.89959 1.016
      vertex 18.5048 -8.23886 1.016
    endloop
  endfacet
  facet normal -0 0 1
    outer loop
      vertex 17.1345 -7.62875 1.016
      vertex 18.5048 -8.23886 1.016
      vertex 18.3461 -3.89959 1.016
    endloop
  endfacet
  facet normal 0 0 1
    outer loop
      vertex 17.1345 -7.62875 1.016
      vertex 16.3874 -11.9062 1.016
      vertex 18.5048 -8.23886 1.016
    endloop
  endfacet
  facet normal -0 0 1
    outer loop
      vertex 15.1739 -11.0245 1.016
      vertex 16.3874 -11.9062 1.016
      vertex 17.1345 -7.62875 1.016
    endloop
  endfacet
  facet normal 0 0 1
    outer loop
      vertex 15.1739 -11.0245 1.016
      vertex 13.5539 -15.0531 1.016
      vertex 16.3874 -11.9062 1.016
    endloop
  endfacet
  facet normal -0 0 1
    outer loop
      vertex 12.5502 -13.9384 1.016
      vertex 13.5539 -15.0531 1.016
      vertex 15.1739 -11.0245 1.016
    endloop
  endfacet
  facet normal 0 0 1
    outer loop
      vertex 12.5502 -13.9384 1.016
      vertex 10.128 -17.5422 1.016
      vertex 13.5539 -15.0531 1.016
    endloop
  endfacet
  facet normal -0 0 1
    outer loop
      vertex 9.378 -16.2432 1.016
      vertex 10.128 -17.5422 1.016
      vertex 12.5502 -13.9384 1.016
    endloop
  endfacet
  facet normal 0 0 1
    outer loop
      vertex 9.378 -16.2432 1.016
      vertex 6.25945 -19.2646 1.016
      vertex 10.128 -17.5422 1.016
    endloop
  endfacet
  facet normal -0 0 1
    outer loop
      vertex 5.79592 -17.838 1.016
      vertex 6.25945 -19.2646 1.016
      vertex 9.378 -16.2432 1.016
    endloop
  endfacet
  facet normal 0 0 1
    outer loop
      vertex 5.79592 -17.838 1.016
      vertex 2.11733 -20.145 1.016
      vertex 6.25945 -19.2646 1.016
    endloop
  endfacet
  facet normal -0 0 1
    outer loop
      vertex 1.96054 -18.6533 1.016
      vertex 2.11733 -20.145 1.016
      vertex 5.79592 -17.838 1.016
    endloop
  endfacet
  facet normal -0 0 1
    outer loop
      vertex -1.96054 -18.6533 1.016
      vertex 2.11733 -20.145 1.016
      vertex 1.96054 -18.6533 1.016
    endloop
  endfacet
  facet normal 0 0 1
    outer loop
      vertex -1.96054 -18.6533 1.016
      vertex -2.11733 -20.145 1.016
      vertex 2.11733 -20.145 1.016
    endloop
  endfacet
  facet normal 0 0 1
    outer loop
      vertex -5.79592 -17.838 1.016
      vertex -2.11733 -20.145 1.016
      vertex -1.96054 -18.6533 1.016
    endloop
  endfacet
  facet normal 0 0 1
    outer loop
      vertex -5.79592 -17.838 1.016
      vertex -6.25945 -19.2646 1.016
      vertex -2.11733 -20.145 1.016
    endloop
  endfacet
  facet normal 0 0 1
    outer loop
      vertex -9.378 -16.2432 1.016
      vertex -6.25945 -19.2646 1.016
      vertex -5.79592 -17.838 1.016
    endloop
  endfacet
  facet normal 0 0 1
    outer loop
      vertex -9.378 -16.2432 1.016
      vertex -10.128 -17.5422 1.016
      vertex -6.25945 -19.2646 1.016
    endloop
  endfacet
  facet normal 0 0 1
    outer loop
      vertex -12.5502 -13.9384 1.016
      vertex -10.128 -17.5422 1.016
      vertex -9.378 -16.2432 1.016
    endloop
  endfacet
  facet normal 0 0 1
    outer loop
      vertex -12.5502 -13.9384 1.016
      vertex -13.5539 -15.0531 1.016
      vertex -10.128 -17.5422 1.016
    endloop
  endfacet
  facet normal 0 0 1
    outer loop
      vertex -15.1739 -11.0245 1.016
      vertex -13.5539 -15.0531 1.016
      vertex -12.5502 -13.9384 1.016
    endloop
  endfacet
  facet normal 0 0 1
    outer loop
      vertex -15.1739 -11.0245 1.016
      vertex -16.3874 -11.9062 1.016
      vertex -13.5539 -15.0531 1.016
    endloop
  endfacet
  facet normal 0 0 1
    outer loop
      vertex -17.1345 -7.62875 1.016
      vertex -16.3874 -11.9062 1.016
      vertex -15.1739 -11.0245 1.016
    endloop
  endfacet
  facet normal 0 0 1
    outer loop
      vertex -18.5048 -8.23886 1.016
      vertex -17.1345 -7.62875 1.016
      vertex -18.3461 -3.89959 1.016
    endloop
  endfacet
  facet normal 0 0 1
    outer loop
      vertex -17.1345 -7.62875 1.016
      vertex -18.5048 -8.23886 1.016
      vertex -16.3874 -11.9062 1.016
    endloop
  endfacet
  facet normal 0 0 1
    outer loop
      vertex -19.8134 -4.21146 1.016
      vertex -18.3461 -3.89959 1.016
      vertex -18.756 0 1.016
    endloop
  endfacet
  facet normal 0 0 1
    outer loop
      vertex -20.256 0 1.016
      vertex -18.756 0 1.016
      vertex -19.8134 4.21146 1.016
    endloop
  endfacet
  facet normal 0 0 1
    outer loop
      vertex -18.3461 -3.89959 1.016
      vertex -19.8134 -4.21146 1.016
      vertex -18.5048 -8.23886 1.016
    endloop
  endfacet
  facet normal 0 0 1
    outer loop
      vertex -18.756 0 1.016
      vertex -20.256 0 1.016
      vertex -19.8134 -4.21146 1.016
    endloop
  endfacet
  facet normal -0.406739 0.913545 0
    outer loop
      vertex -6.25945 19.2646 0
      vertex -10.128 17.5422 1.016
      vertex -6.25945 19.2646 1.016
    endloop
  endfacet
  facet normal -0.406739 0.913545 0
    outer loop
      vertex -10.128 17.5422 1.016
      vertex -6.25945 19.2646 0
      vertex -10.128 17.5422 0
    endloop
  endfacet
  facet normal 0.994523 -0.104519 0
    outer loop
      vertex 19.8134 -4.21146 1.016
      vertex 20.256 0 0
      vertex 20.256 0 1.016
    endloop
  endfacet
  facet normal 0.994523 -0.104519 0
    outer loop
      vertex 20.256 0 0
      vertex 19.8134 -4.21146 1.016
      vertex 19.8134 -4.21146 0
    endloop
  endfacet
  facet normal 0.207904 -0.978149 0
    outer loop
      vertex 2.11733 -20.145 0
      vertex 6.25945 -19.2646 1.016
      vertex 2.11733 -20.145 1.016
    endloop
  endfacet
  facet normal 0.207904 -0.978149 0
    outer loop
      vertex 6.25945 -19.2646 1.016
      vertex 2.11733 -20.145 0
      vertex 6.25945 -19.2646 0
    endloop
  endfacet
  facet normal 0.866019 -0.500011 0
    outer loop
      vertex 16.3874 -11.9062 1.016
      vertex 18.5048 -8.23886 0
      vertex 18.5048 -8.23886 1.016
    endloop
  endfacet
  facet normal 0.866019 -0.500011 0
    outer loop
      vertex 18.5048 -8.23886 0
      vertex 16.3874 -11.9062 1.016
      vertex 16.3874 -11.9062 0
    endloop
  endfacet
  facet normal -0.587791 -0.809013 0
    outer loop
      vertex -13.5539 -15.0531 0
      vertex -10.128 -17.5422 1.016
      vertex -13.5539 -15.0531 1.016
    endloop
  endfacet
  facet normal -0.587791 -0.809013 -0
    outer loop
      vertex -10.128 -17.5422 1.016
      vertex -13.5539 -15.0531 0
      vertex -10.128 -17.5422 0
    endloop
  endfacet
  facet normal -0.866019 -0.500011 0
    outer loop
      vertex -16.3874 -11.9062 0
      vertex -18.5048 -8.23886 1.016
      vertex -18.5048 -8.23886 0
    endloop
  endfacet
  facet normal -0.866019 -0.500011 0
    outer loop
      vertex -18.5048 -8.23886 1.016
      vertex -16.3874 -11.9062 0
      vertex -16.3874 -11.9062 1.016
    endloop
  endfacet
  facet normal -0.743143 -0.669133 0
    outer loop
      vertex -13.5539 -15.0531 0
      vertex -16.3874 -11.9062 1.016
      vertex -16.3874 -11.9062 0
    endloop
  endfacet
  facet normal -0.743143 -0.669133 0
    outer loop
      vertex -16.3874 -11.9062 1.016
      vertex -13.5539 -15.0531 0
      vertex -13.5539 -15.0531 1.016
    endloop
  endfacet
  facet normal -0.994523 -0.104519 0
    outer loop
      vertex -19.8134 -4.21146 0
      vertex -20.256 0 1.016
      vertex -20.256 0 0
    endloop
  endfacet
  facet normal -0.994523 -0.104519 0
    outer loop
      vertex -20.256 0 1.016
      vertex -19.8134 -4.21146 0
      vertex -19.8134 -4.21146 1.016
    endloop
  endfacet
  facet normal 0.587791 -0.809013 0
    outer loop
      vertex 10.128 -17.5422 0
      vertex 13.5539 -15.0531 1.016
      vertex 10.128 -17.5422 1.016
    endloop
  endfacet
  facet normal 0.587791 -0.809013 0
    outer loop
      vertex 13.5539 -15.0531 1.016
      vertex 10.128 -17.5422 0
      vertex 13.5539 -15.0531 0
    endloop
  endfacet
  facet normal 0.406739 -0.913545 0
    outer loop
      vertex 6.25945 -19.2646 0
      vertex 10.128 -17.5422 1.016
      vertex 6.25945 -19.2646 1.016
    endloop
  endfacet
  facet normal 0.406739 -0.913545 0
    outer loop
      vertex 10.128 -17.5422 1.016
      vertex 6.25945 -19.2646 0
      vertex 10.128 -17.5422 0
    endloop
  endfacet
  facet normal -0.207904 -0.978149 0
    outer loop
      vertex -6.25945 -19.2646 0
      vertex -2.11733 -20.145 1.016
      vertex -6.25945 -19.2646 1.016
    endloop
  endfacet
  facet normal -0.207904 -0.978149 -0
    outer loop
      vertex -2.11733 -20.145 1.016
      vertex -6.25945 -19.2646 0
      vertex -2.11733 -20.145 0
    endloop
  endfacet
  facet normal -0.951055 -0.309021 0
    outer loop
      vertex -18.5048 -8.23886 0
      vertex -19.8134 -4.21146 1.016
      vertex -19.8134 -4.21146 0
    endloop
  endfacet
  facet normal -0.951055 -0.309021 0
    outer loop
      vertex -19.8134 -4.21146 1.016
      vertex -18.5048 -8.23886 0
      vertex -18.5048 -8.23886 1.016
    endloop
  endfacet
  facet normal 0.743143 -0.669133 0
    outer loop
      vertex 13.5539 -15.0531 1.016
      vertex 16.3874 -11.9062 0
      vertex 16.3874 -11.9062 1.016
    endloop
  endfacet
  facet normal 0.743143 -0.669133 0
    outer loop
      vertex 16.3874 -11.9062 0
      vertex 13.5539 -15.0531 1.016
      vertex 13.5539 -15.0531 0
    endloop
  endfacet
  facet normal -0.406739 -0.913545 0
    outer loop
      vertex -10.128 -17.5422 0
      vertex -6.25945 -19.2646 1.016
      vertex -10.128 -17.5422 1.016
    endloop
  endfacet
  facet normal -0.406739 -0.913545 -0
    outer loop
      vertex -6.25945 -19.2646 1.016
      vertex -10.128 -17.5422 0
      vertex -6.25945 -19.2646 0
    endloop
  endfacet
  facet normal -0 0 1
    outer loop
      vertex 12.4847 12.4847 2.032
      vertex 14.1364 12.1768 2.032
      vertex 12.5502 13.9384 2.032
    endloop
  endfacet
  facet normal 0 0 1
    outer loop
      vertex 14.1364 12.1768 2.032
      vertex 12.4847 12.4847 2.032
      vertex 14.0302 12.0706 2.032
    endloop
  endfacet
  facet normal -0 0 1
    outer loop
      vertex 12.0706 14.0302 2.032
      vertex 12.5502 13.9384 2.032
      vertex 12.2193 14.1789 2.032
    endloop
  endfacet
  facet normal 0 0 1
    outer loop
      vertex 12.5502 13.9384 2.032
      vertex 12.0706 14.0302 2.032
      vertex 12.4847 12.4847 2.032
    endloop
  endfacet
  facet normal 0.707107 -0.707107 0
    outer loop
      vertex 12.0706 14.0302 4.064
      vertex 12.2193 14.1789 2.032
      vertex 12.2193 14.1789 4.064
    endloop
  endfacet
  facet normal 0.707107 -0.707107 0
    outer loop
      vertex 12.2193 14.1789 2.032
      vertex 12.0706 14.0302 4.064
      vertex 12.0706 14.0302 2.032
    endloop
  endfacet
  facet normal -0.707107 0.707107 0
    outer loop
      vertex 14.0302 12.0706 2.032
      vertex 14.1364 12.1768 4.064
      vertex 14.1364 12.1768 2.032
    endloop
  endfacet
  facet normal -0.707107 0.707107 0
    outer loop
      vertex 14.1364 12.1768 4.064
      vertex 14.0302 12.0706 2.032
      vertex 14.0302 12.0706 4.064
    endloop
  endfacet
  facet normal 0.965928 0.25881 0
    outer loop
      vertex 12.4847 12.4847 4.064
      vertex 12.0706 14.0302 2.032
      vertex 12.0706 14.0302 4.064
    endloop
  endfacet
  facet normal 0.965928 0.25881 0
    outer loop
      vertex 12.0706 14.0302 2.032
      vertex 12.4847 12.4847 4.064
      vertex 12.4847 12.4847 2.032
    endloop
  endfacet
  facet normal 0.25881 0.965928 -0
    outer loop
      vertex 14.0302 12.0706 2.032
      vertex 12.4847 12.4847 4.064
      vertex 14.0302 12.0706 4.064
    endloop
  endfacet
  facet normal 0.25881 0.965928 0
    outer loop
      vertex 12.4847 12.4847 4.064
      vertex 14.0302 12.0706 2.032
      vertex 12.4847 12.4847 2.032
    endloop
  endfacet
  facet normal 0 0 1
    outer loop
      vertex -12.5502 13.9384 2.032
      vertex -12.0706 14.0302 2.032
      vertex -12.2193 14.1789 2.032
    endloop
  endfacet
  facet normal 0 0 1
    outer loop
      vertex -12.0706 14.0302 2.032
      vertex -12.5502 13.9384 2.032
      vertex -12.4847 12.4847 2.032
    endloop
  endfacet
  facet normal 0 0 1
    outer loop
      vertex -14.1364 12.1768 2.032
      vertex -12.4847 12.4847 2.032
      vertex -12.5502 13.9384 2.032
    endloop
  endfacet
  facet normal 0 0 1
    outer loop
      vertex -12.4847 12.4847 2.032
      vertex -14.1364 12.1768 2.032
      vertex -14.0302 12.0706 2.032
    endloop
  endfacet
  facet normal -0.965928 0.25881 0
    outer loop
      vertex -12.4847 12.4847 2.032
      vertex -12.0706 14.0302 4.064
      vertex -12.0706 14.0302 2.032
    endloop
  endfacet
  facet normal -0.965928 0.25881 0
    outer loop
      vertex -12.0706 14.0302 4.064
      vertex -12.4847 12.4847 2.032
      vertex -12.4847 12.4847 4.064
    endloop
  endfacet
  facet normal 0.707107 0.707107 0
    outer loop
      vertex -14.0302 12.0706 4.064
      vertex -14.1364 12.1768 2.032
      vertex -14.1364 12.1768 4.064
    endloop
  endfacet
  facet normal 0.707107 0.707107 0
    outer loop
      vertex -14.1364 12.1768 2.032
      vertex -14.0302 12.0706 4.064
      vertex -14.0302 12.0706 2.032
    endloop
  endfacet
  facet normal -0.707107 -0.707107 0
    outer loop
      vertex -12.0706 14.0302 2.032
      vertex -12.2193 14.1789 4.064
      vertex -12.2193 14.1789 2.032
    endloop
  endfacet
  facet normal -0.707107 -0.707107 0
    outer loop
      vertex -12.2193 14.1789 4.064
      vertex -12.0706 14.0302 2.032
      vertex -12.0706 14.0302 4.064
    endloop
  endfacet
  facet normal -0.25881 0.965928 0
    outer loop
      vertex -12.4847 12.4847 2.032
      vertex -14.0302 12.0706 4.064
      vertex -12.4847 12.4847 4.064
    endloop
  endfacet
  facet normal -0.25881 0.965928 0
    outer loop
      vertex -14.0302 12.0706 4.064
      vertex -12.4847 12.4847 2.032
      vertex -14.0302 12.0706 2.032
    endloop
  endfacet
  facet normal -0.25881 -0.965928 0
    outer loop
      vertex -14.0302 -12.0706 2.032
      vertex -12.4847 -12.4847 4.064
      vertex -14.0302 -12.0706 4.064
    endloop
  endfacet
  facet normal -0.25881 -0.965928 -0
    outer loop
      vertex -12.4847 -12.4847 4.064
      vertex -14.0302 -12.0706 2.032
      vertex -12.4847 -12.4847 2.032
    endloop
  endfacet
  facet normal -0.707107 0.707107 0
    outer loop
      vertex -12.2193 -14.1789 2.032
      vertex -12.0706 -14.0302 4.064
      vertex -12.0706 -14.0302 2.032
    endloop
  endfacet
  facet normal -0.707107 0.707107 0
    outer loop
      vertex -12.0706 -14.0302 4.064
      vertex -12.2193 -14.1789 2.032
      vertex -12.2193 -14.1789 4.064
    endloop
  endfacet
  facet normal 0.707107 -0.707107 0
    outer loop
      vertex -14.1364 -12.1768 4.064
      vertex -14.0302 -12.0706 2.032
      vertex -14.0302 -12.0706 4.064
    endloop
  endfacet
  facet normal 0.707107 -0.707107 0
    outer loop
      vertex -14.0302 -12.0706 2.032
      vertex -14.1364 -12.1768 4.064
      vertex -14.1364 -12.1768 2.032
    endloop
  endfacet
  facet normal -0.965928 -0.25881 0
    outer loop
      vertex -12.0706 -14.0302 2.032
      vertex -12.4847 -12.4847 4.064
      vertex -12.4847 -12.4847 2.032
    endloop
  endfacet
  facet normal -0.965928 -0.25881 0
    outer loop
      vertex -12.4847 -12.4847 4.064
      vertex -12.0706 -14.0302 2.032
      vertex -12.0706 -14.0302 4.064
    endloop
  endfacet
  facet normal -0 0 1
    outer loop
      vertex -12.5502 -13.9384 2.032
      vertex -12.0706 -14.0302 2.032
      vertex -12.4847 -12.4847 2.032
    endloop
  endfacet
  facet normal 0 0 1
    outer loop
      vertex -12.0706 -14.0302 2.032
      vertex -12.5502 -13.9384 2.032
      vertex -12.2193 -14.1789 2.032
    endloop
  endfacet
  facet normal -0 0 1
    outer loop
      vertex -14.1364 -12.1768 2.032
      vertex -12.4847 -12.4847 2.032
      vertex -14.0302 -12.0706 2.032
    endloop
  endfacet
  facet normal 0 0 1
    outer loop
      vertex -12.4847 -12.4847 2.032
      vertex -14.1364 -12.1768 2.032
      vertex -12.5502 -13.9384 2.032
    endloop
  endfacet
  facet normal 0.965928 -0.25881 0
    outer loop
      vertex 12.0706 -14.0302 4.064
      vertex 12.4847 -12.4847 2.032
      vertex 12.4847 -12.4847 4.064
    endloop
  endfacet
  facet normal 0.965928 -0.25881 0
    outer loop
      vertex 12.4847 -12.4847 2.032
      vertex 12.0706 -14.0302 4.064
      vertex 12.0706 -14.0302 2.032
    endloop
  endfacet
  facet normal -0.707107 -0.707107 0
    outer loop
      vertex 14.1364 -12.1768 2.032
      vertex 14.0302 -12.0706 4.064
      vertex 14.0302 -12.0706 2.032
    endloop
  endfacet
  facet normal -0.707107 -0.707107 0
    outer loop
      vertex 14.0302 -12.0706 4.064
      vertex 14.1364 -12.1768 2.032
      vertex 14.1364 -12.1768 4.064
    endloop
  endfacet
  facet normal 0.707107 0.707107 0
    outer loop
      vertex 12.2193 -14.1789 4.064
      vertex 12.0706 -14.0302 2.032
      vertex 12.0706 -14.0302 4.064
    endloop
  endfacet
  facet normal 0.707107 0.707107 0
    outer loop
      vertex 12.0706 -14.0302 2.032
      vertex 12.2193 -14.1789 4.064
      vertex 12.2193 -14.1789 2.032
    endloop
  endfacet
  facet normal 0 0 1
    outer loop
      vertex 12.4847 -12.4847 2.032
      vertex 14.1364 -12.1768 2.032
      vertex 14.0302 -12.0706 2.032
    endloop
  endfacet
  facet normal 0 0 1
    outer loop
      vertex 14.1364 -12.1768 2.032
      vertex 12.4847 -12.4847 2.032
      vertex 12.5502 -13.9384 2.032
    endloop
  endfacet
  facet normal 0 0 1
    outer loop
      vertex 12.0706 -14.0302 2.032
      vertex 12.5502 -13.9384 2.032
      vertex 12.4847 -12.4847 2.032
    endloop
  endfacet
  facet normal 0 0 1
    outer loop
      vertex 12.5502 -13.9384 2.032
      vertex 12.0706 -14.0302 2.032
      vertex 12.2193 -14.1789 2.032
    endloop
  endfacet
  facet normal 0.25881 -0.965928 0
    outer loop
      vertex 12.4847 -12.4847 2.032
      vertex 14.0302 -12.0706 4.064
      vertex 12.4847 -12.4847 4.064
    endloop
  endfacet
  facet normal 0.25881 -0.965928 0
    outer loop
      vertex 14.0302 -12.0706 4.064
      vertex 12.4847 -12.4847 2.032
      vertex 14.0302 -12.0706 2.032
    endloop
  endfacet
  facet normal -0.866028 -0.499996 0
    outer loop
      vertex 14.8506 6.61191 0
      vertex 13.1514 9.55504 4.064
      vertex 13.1514 9.55504 0
    endloop
  endfacet
  facet normal -0.866028 -0.499996 0
    outer loop
      vertex 13.1514 9.55504 4.064
      vertex 14.8506 6.61191 0
      vertex 14.8506 6.61191 4.064
    endloop
  endfacet
  facet normal -0.951054 -0.309024 0
    outer loop
      vertex 15.9008 3.37981 0
      vertex 14.8506 6.61191 4.064
      vertex 14.8506 6.61191 0
    endloop
  endfacet
  facet normal -0.951054 -0.309024 0
    outer loop
      vertex 14.8506 6.61191 4.064
      vertex 15.9008 3.37981 0
      vertex 15.9008 3.37981 4.064
    endloop
  endfacet
  facet normal -0.207891 -0.978152 0
    outer loop
      vertex 1.69921 16.1669 0
      vertex 5.02338 15.4604 4.064
      vertex 1.69921 16.1669 4.064
    endloop
  endfacet
  facet normal -0.207891 -0.978152 -0
    outer loop
      vertex 5.02338 15.4604 4.064
      vertex 1.69921 16.1669 0
      vertex 5.02338 15.4604 0
    endloop
  endfacet
  facet normal -0.406745 -0.913542 0
    outer loop
      vertex 5.02338 15.4604 0
      vertex 8.128 14.0781 4.064
      vertex 5.02338 15.4604 4.064
    endloop
  endfacet
  facet normal -0.406745 -0.913542 -0
    outer loop
      vertex 8.128 14.0781 4.064
      vertex 5.02338 15.4604 0
      vertex 8.128 14.0781 0
    endloop
  endfacet
  facet normal 0.406745 -0.913542 0
    outer loop
      vertex -8.128 14.0781 0
      vertex -5.02338 15.4604 4.064
      vertex -8.128 14.0781 4.064
    endloop
  endfacet
  facet normal 0.406745 -0.913542 0
    outer loop
      vertex -5.02338 15.4604 4.064
      vertex -8.128 14.0781 0
      vertex -5.02338 15.4604 0
    endloop
  endfacet
  facet normal 0.866028 -0.499996 0
    outer loop
      vertex -14.8506 6.61191 4.064
      vertex -13.1514 9.55504 0
      vertex -13.1514 9.55504 4.064
    endloop
  endfacet
  facet normal 0.866028 -0.499996 0
    outer loop
      vertex -13.1514 9.55504 0
      vertex -14.8506 6.61191 4.064
      vertex -14.8506 6.61191 0
    endloop
  endfacet
  facet normal 0.587774 -0.809025 0
    outer loop
      vertex -10.8774 12.0806 0
      vertex -8.128 14.0781 4.064
      vertex -10.8774 12.0806 4.064
    endloop
  endfacet
  facet normal 0.587774 -0.809025 0
    outer loop
      vertex -8.128 14.0781 4.064
      vertex -10.8774 12.0806 0
      vertex -8.128 14.0781 0
    endloop
  endfacet
  facet normal -0.994523 0.104519 0
    outer loop
      vertex 15.9008 -3.37981 0
      vertex 16.256 0 4.064
      vertex 16.256 0 0
    endloop
  endfacet
  facet normal -0.994523 0.104519 0
    outer loop
      vertex 16.256 0 4.064
      vertex 15.9008 -3.37981 0
      vertex 15.9008 -3.37981 4.064
    endloop
  endfacet
  facet normal -0.207891 0.978152 0
    outer loop
      vertex 5.02338 -15.4604 0
      vertex 1.69921 -16.1669 4.064
      vertex 5.02338 -15.4604 4.064
    endloop
  endfacet
  facet normal -0.207891 0.978152 0
    outer loop
      vertex 1.69921 -16.1669 4.064
      vertex 5.02338 -15.4604 0
      vertex 1.69921 -16.1669 0
    endloop
  endfacet
  facet normal -0.743148 -0.669127 0
    outer loop
      vertex 13.1514 9.55504 0
      vertex 10.8774 12.0806 4.064
      vertex 10.8774 12.0806 0
    endloop
  endfacet
  facet normal -0.743148 -0.669127 0
    outer loop
      vertex 10.8774 12.0806 4.064
      vertex 13.1514 9.55504 0
      vertex 13.1514 9.55504 4.064
    endloop
  endfacet
  facet normal 0 -1 0
    outer loop
      vertex -1.69921 16.1669 0
      vertex 1.69921 16.1669 4.064
      vertex -1.69921 16.1669 4.064
    endloop
  endfacet
  facet normal 0 -1 -0
    outer loop
      vertex 1.69921 16.1669 4.064
      vertex -1.69921 16.1669 0
      vertex 1.69921 16.1669 0
    endloop
  endfacet
  facet normal -0.587774 -0.809025 0
    outer loop
      vertex 8.128 14.0781 0
      vertex 10.8774 12.0806 4.064
      vertex 8.128 14.0781 4.064
    endloop
  endfacet
  facet normal -0.587774 -0.809025 -0
    outer loop
      vertex 10.8774 12.0806 4.064
      vertex 8.128 14.0781 0
      vertex 10.8774 12.0806 0
    endloop
  endfacet
  facet normal 0.994523 -0.104519 0
    outer loop
      vertex -16.256 0 4.064
      vertex -15.9008 3.37981 0
      vertex -15.9008 3.37981 4.064
    endloop
  endfacet
  facet normal 0.994523 -0.104519 0
    outer loop
      vertex -15.9008 3.37981 0
      vertex -16.256 0 4.064
      vertex -16.256 0 0
    endloop
  endfacet
  facet normal 0.743148 -0.669127 0
    outer loop
      vertex -13.1514 9.55504 4.064
      vertex -10.8774 12.0806 0
      vertex -10.8774 12.0806 4.064
    endloop
  endfacet
  facet normal 0.743148 -0.669127 0
    outer loop
      vertex -10.8774 12.0806 0
      vertex -13.1514 9.55504 4.064
      vertex -13.1514 9.55504 0
    endloop
  endfacet
  facet normal 0.207891 -0.978152 0
    outer loop
      vertex -5.02338 15.4604 0
      vertex -1.69921 16.1669 4.064
      vertex -5.02338 15.4604 4.064
    endloop
  endfacet
  facet normal 0.207891 -0.978152 0
    outer loop
      vertex -1.69921 16.1669 4.064
      vertex -5.02338 15.4604 0
      vertex -1.69921 16.1669 0
    endloop
  endfacet
  facet normal -0.994523 -0.104519 0
    outer loop
      vertex 16.256 0 0
      vertex 15.9008 3.37981 4.064
      vertex 15.9008 3.37981 0
    endloop
  endfacet
  facet normal -0.994523 -0.104519 0
    outer loop
      vertex 15.9008 3.37981 4.064
      vertex 16.256 0 0
      vertex 16.256 0 4.064
    endloop
  endfacet
  facet normal -0.587774 0.809025 0
    outer loop
      vertex 10.8774 -12.0806 0
      vertex 8.128 -14.0781 4.064
      vertex 10.8774 -12.0806 4.064
    endloop
  endfacet
  facet normal -0.587774 0.809025 0
    outer loop
      vertex 8.128 -14.0781 4.064
      vertex 10.8774 -12.0806 0
      vertex 8.128 -14.0781 0
    endloop
  endfacet
  facet normal -0.951054 0.309024 0
    outer loop
      vertex 14.8506 -6.61191 0
      vertex 15.9008 -3.37981 4.064
      vertex 15.9008 -3.37981 0
    endloop
  endfacet
  facet normal -0.951054 0.309024 0
    outer loop
      vertex 15.9008 -3.37981 4.064
      vertex 14.8506 -6.61191 0
      vertex 14.8506 -6.61191 4.064
    endloop
  endfacet
  facet normal 0.207891 0.978152 -0
    outer loop
      vertex -1.69921 -16.1669 0
      vertex -5.02338 -15.4604 4.064
      vertex -1.69921 -16.1669 4.064
    endloop
  endfacet
  facet normal 0.207891 0.978152 0
    outer loop
      vertex -5.02338 -15.4604 4.064
      vertex -1.69921 -16.1669 0
      vertex -5.02338 -15.4604 0
    endloop
  endfacet
  facet normal 0.951054 -0.309024 0
    outer loop
      vertex -15.9008 3.37981 4.064
      vertex -14.8506 6.61191 0
      vertex -14.8506 6.61191 4.064
    endloop
  endfacet
  facet normal 0.951054 -0.309024 0
    outer loop
      vertex -14.8506 6.61191 0
      vertex -15.9008 3.37981 4.064
      vertex -15.9008 3.37981 0
    endloop
  endfacet
  facet normal 0.994523 0.104519 0
    outer loop
      vertex -15.9008 -3.37981 4.064
      vertex -16.256 0 0
      vertex -16.256 0 4.064
    endloop
  endfacet
  facet normal 0.994523 0.104519 0
    outer loop
      vertex -16.256 0 0
      vertex -15.9008 -3.37981 4.064
      vertex -15.9008 -3.37981 0
    endloop
  endfacet
  facet normal -0.743148 0.669127 0
    outer loop
      vertex 10.8774 -12.0806 0
      vertex 13.1514 -9.55504 4.064
      vertex 13.1514 -9.55504 0
    endloop
  endfacet
  facet normal -0.743148 0.669127 0
    outer loop
      vertex 13.1514 -9.55504 4.064
      vertex 10.8774 -12.0806 0
      vertex 10.8774 -12.0806 4.064
    endloop
  endfacet
  facet normal -0.866028 0.499996 0
    outer loop
      vertex 13.1514 -9.55504 0
      vertex 14.8506 -6.61191 4.064
      vertex 14.8506 -6.61191 0
    endloop
  endfacet
  facet normal -0.866028 0.499996 0
    outer loop
      vertex 14.8506 -6.61191 4.064
      vertex 13.1514 -9.55504 0
      vertex 13.1514 -9.55504 4.064
    endloop
  endfacet
  facet normal 0.587774 0.809025 -0
    outer loop
      vertex -8.128 -14.0781 0
      vertex -10.8774 -12.0806 4.064
      vertex -8.128 -14.0781 4.064
    endloop
  endfacet
  facet normal 0.587774 0.809025 0
    outer loop
      vertex -10.8774 -12.0806 4.064
      vertex -8.128 -14.0781 0
      vertex -10.8774 -12.0806 0
    endloop
  endfacet
  facet normal 0 1 -0
    outer loop
      vertex 1.69921 -16.1669 0
      vertex -1.69921 -16.1669 4.064
      vertex 1.69921 -16.1669 4.064
    endloop
  endfacet
  facet normal 0 1 0
    outer loop
      vertex -1.69921 -16.1669 4.064
      vertex 1.69921 -16.1669 0
      vertex -1.69921 -16.1669 0
    endloop
  endfacet
  facet normal 0.951054 0.309024 0
    outer loop
      vertex -14.8506 -6.61191 4.064
      vertex -15.9008 -3.37981 0
      vertex -15.9008 -3.37981 4.064
    endloop
  endfacet
  facet normal 0.951054 0.309024 0
    outer loop
      vertex -15.9008 -3.37981 0
      vertex -14.8506 -6.61191 4.064
      vertex -14.8506 -6.61191 0
    endloop
  endfacet
  facet normal 0.743148 0.669127 0
    outer loop
      vertex -10.8774 -12.0806 4.064
      vertex -13.1514 -9.55504 0
      vertex -13.1514 -9.55504 4.064
    endloop
  endfacet
  facet normal 0.743148 0.669127 0
    outer loop
      vertex -13.1514 -9.55504 0
      vertex -10.8774 -12.0806 4.064
      vertex -10.8774 -12.0806 0
    endloop
  endfacet
  facet normal 0.866028 0.499996 0
    outer loop
      vertex -13.1514 -9.55504 4.064
      vertex -14.8506 -6.61191 0
      vertex -14.8506 -6.61191 4.064
    endloop
  endfacet
  facet normal 0.866028 0.499996 0
    outer loop
      vertex -14.8506 -6.61191 0
      vertex -13.1514 -9.55504 4.064
      vertex -13.1514 -9.55504 0
    endloop
  endfacet
  facet normal -0.406745 0.913542 0
    outer loop
      vertex 8.128 -14.0781 0
      vertex 5.02338 -15.4604 4.064
      vertex 8.128 -14.0781 4.064
    endloop
  endfacet
  facet normal -0.406745 0.913542 0
    outer loop
      vertex 5.02338 -15.4604 4.064
      vertex 8.128 -14.0781 0
      vertex 5.02338 -15.4604 0
    endloop
  endfacet
  facet normal 0.406745 0.913542 -0
    outer loop
      vertex -5.02338 -15.4604 0
      vertex -8.128 -14.0781 4.064
      vertex -5.02338 -15.4604 4.064
    endloop
  endfacet
  facet normal 0.406745 0.913542 0
    outer loop
      vertex -8.128 -14.0781 4.064
      vertex -5.02338 -15.4604 0
      vertex -8.128 -14.0781 0
    endloop
  endfacet
  facet normal 0 0 1
    outer loop
      vertex 19.756 1 2.032
      vertex 18.756 0 2.032
      vertex 19.756 -1 2.032
    endloop
  endfacet
  facet normal 0 -0 1
    outer loop
      vertex 18.756 0 2.032
      vertex 19.756 1 2.032
      vertex 18.6509 1 2.032
    endloop
  endfacet
  facet normal 0 0 1
    outer loop
      vertex 19.756 -1 2.032
      vertex 18.756 0 2.032
      vertex 18.6509 -1 2.032
    endloop
  endfacet
  facet normal 1 -0 0
    outer loop
      vertex 19.756 -1 2.032
      vertex 19.756 1 1.016
      vertex 19.756 1 2.032
    endloop
  endfacet
  facet normal 1 0 0
    outer loop
      vertex 19.756 1 1.016
      vertex 19.756 -1 2.032
      vertex 19.756 -1 1.016
    endloop
  endfacet
  facet normal 0 -1 0
    outer loop
      vertex 18.6509 -1 1.016
      vertex 19.756 -1 2.032
      vertex 18.6509 -1 2.032
    endloop
  endfacet
  facet normal 0 -1 -0
    outer loop
      vertex 19.756 -1 2.032
      vertex 18.6509 -1 1.016
      vertex 19.756 -1 1.016
    endloop
  endfacet
  facet normal 0 1 -0
    outer loop
      vertex 19.756 1 1.016
      vertex 18.6509 1 2.032
      vertex 19.756 1 2.032
    endloop
  endfacet
  facet normal 0 1 0
    outer loop
      vertex 18.6509 1 2.032
      vertex 19.756 1 1.016
      vertex 18.6509 1 1.016
    endloop
  endfacet
endsolid OpenSCAD_Model
