solid OpenSCAD_Model
  facet normal 1 -0 0
    outer loop
      vertex 5.84673 1.93227 15.24
      vertex 5.84673 3.22638 0
      vertex 5.84673 3.22638 15.24
    endloop
  endfacet
  facet normal 1 0 0
    outer loop
      vertex 5.84673 3.22638 0
      vertex 5.84673 1.93227 15.24
      vertex 5.84673 1.93227 0
    endloop
  endfacet
  facet normal -0.809017 0.587785 0
    outer loop
      vertex 7.24427 1.47818 0
      vertex 7.58071 1.94125 15.24
      vertex 7.58071 1.94125 0
    endloop
  endfacet
  facet normal -0.809017 0.587785 0
    outer loop
      vertex 7.58071 1.94125 15.24
      vertex 7.24427 1.47818 0
      vertex 7.24427 1.47818 15.24
    endloop
  endfacet
  facet normal 0.309018 0.951056 -0
    outer loop
      vertex 7.24427 1.47818 0
      vertex 5.84673 1.93227 15.24
      vertex 7.24427 1.47818 15.24
    endloop
  endfacet
  facet normal 0.309018 0.951056 0
    outer loop
      vertex 5.84673 1.93227 15.24
      vertex 7.24427 1.47818 0
      vertex 5.84673 1.93227 0
    endloop
  endfacet
  facet normal -0.808975 -0.587843 0
    outer loop
      vertex 7.58071 15.8388 0
      vertex 7.24427 16.3018 15.24
      vertex 7.24427 16.3018 0
    endloop
  endfacet
  facet normal -0.808975 -0.587843 0
    outer loop
      vertex 7.24427 16.3018 15.24
      vertex 7.58071 15.8388 0
      vertex 7.58071 15.8388 15.24
    endloop
  endfacet
  facet normal 1 -0 0
    outer loop
      vertex 5.84673 14.5536 15.24
      vertex 5.84673 15.8477 0
      vertex 5.84673 15.8477 15.24
    endloop
  endfacet
  facet normal 1 0 0
    outer loop
      vertex 5.84673 15.8477 0
      vertex 5.84673 14.5536 15.24
      vertex 5.84673 14.5536 0
    endloop
  endfacet
  facet normal 0.309024 -0.951054 0
    outer loop
      vertex 5.84673 15.8477 0
      vertex 7.24427 16.3018 15.24
      vertex 5.84673 15.8477 15.24
    endloop
  endfacet
  facet normal 0.309024 -0.951054 0
    outer loop
      vertex 7.24427 16.3018 15.24
      vertex 5.84673 15.8477 0
      vertex 7.24427 16.3018 0
    endloop
  endfacet
  facet normal -0.809057 -0.587731 0
    outer loop
      vertex 40.112 2.667 0
      vertex 39.7713 3.136 15.24
      vertex 39.7713 3.136 0
    endloop
  endfacet
  facet normal -0.809057 -0.587731 0
    outer loop
      vertex 39.7713 3.136 15.24
      vertex 40.112 2.667 0
      vertex 40.112 2.667 15.24
    endloop
  endfacet
  facet normal 0.309011 0.951059 -0
    outer loop
      vertex 39.2483 1.47818 0
      vertex 38.0184 1.87779 15.24
      vertex 39.2483 1.47818 15.24
    endloop
  endfacet
  facet normal 0.309011 0.951059 0
    outer loop
      vertex 38.0184 1.87779 15.24
      vertex 39.2483 1.47818 0
      vertex 38.0184 1.87779 0
    endloop
  endfacet
  facet normal -0.809026 0.587773 0
    outer loop
      vertex 39.2483 1.47818 0
      vertex 40.112 2.667 15.24
      vertex 40.112 2.667 0
    endloop
  endfacet
  facet normal -0.809026 0.587773 0
    outer loop
      vertex 40.112 2.667 15.24
      vertex 39.2483 1.47818 0
      vertex 39.2483 1.47818 15.24
    endloop
  endfacet
  facet normal -0.809021 -0.587779 0
    outer loop
      vertex 40.112 15.113 0
      vertex 39.2483 16.3018 15.24
      vertex 39.2483 16.3018 0
    endloop
  endfacet
  facet normal -0.809021 -0.587779 0
    outer loop
      vertex 39.2483 16.3018 15.24
      vertex 40.112 15.113 0
      vertex 40.112 15.113 15.24
    endloop
  endfacet
  facet normal 0.309004 -0.951061 0
    outer loop
      vertex 38.0184 15.9022 0
      vertex 39.2483 16.3018 15.24
      vertex 38.0184 15.9022 15.24
    endloop
  endfacet
  facet normal 0.309004 -0.951061 0
    outer loop
      vertex 39.2483 16.3018 15.24
      vertex 38.0184 15.9022 0
      vertex 39.2483 16.3018 0
    endloop
  endfacet
  facet normal -0.809057 0.587731 0
    outer loop
      vertex 39.7713 14.644 0
      vertex 40.112 15.113 15.24
      vertex 40.112 15.113 0
    endloop
  endfacet
  facet normal -0.809057 0.587731 0
    outer loop
      vertex 40.112 15.113 15.24
      vertex 39.7713 14.644 0
      vertex 39.7713 14.644 15.24
    endloop
  endfacet
  facet normal 0 -0.500011 0.866019
    outer loop
      vertex 45.72 10.2756 6.82
      vertex 42.29 8.89 6.02
      vertex 45.72 8.89 6.02
    endloop
  endfacet
  facet normal 0 -0.500011 0.866019
    outer loop
      vertex 42.29 8.89 6.02
      vertex 45.72 10.2756 6.82
      vertex 42.1218 10.2756 6.82
    endloop
  endfacet
  facet normal 0 -0.500011 -0.866019
    outer loop
      vertex 42.29 8.89 9.22
      vertex 45.72 10.2756 8.42
      vertex 45.72 8.89 9.22
    endloop
  endfacet
  facet normal -0 -0.500011 -0.866019
    outer loop
      vertex 45.72 10.2756 8.42
      vertex 42.29 8.89 9.22
      vertex 42.1218 10.2756 8.42
    endloop
  endfacet
  facet normal 0 -1 0
    outer loop
      vertex 42.1218 10.2756 6.82
      vertex 45.72 10.2756 8.42
      vertex 42.1218 10.2756 8.42
    endloop
  endfacet
  facet normal 0 -1 -0
    outer loop
      vertex 45.72 10.2756 8.42
      vertex 42.1218 10.2756 6.82
      vertex 45.72 10.2756 6.82
    endloop
  endfacet
  facet normal -0 0.5 0.866025
    outer loop
      vertex 42.29 8.89 6.02
      vertex 45.72 7.50436 6.82
      vertex 45.72 8.89 6.02
    endloop
  endfacet
  facet normal 0 0.5 0.866025
    outer loop
      vertex 45.72 7.50436 6.82
      vertex 42.29 8.89 6.02
      vertex 42.1218 7.50436 6.82
    endloop
  endfacet
  facet normal 0 1 -0
    outer loop
      vertex 45.72 7.50436 6.82
      vertex 42.1218 7.50436 8.42
      vertex 45.72 7.50436 8.42
    endloop
  endfacet
  facet normal 0 1 0
    outer loop
      vertex 42.1218 7.50436 8.42
      vertex 45.72 7.50436 6.82
      vertex 42.1218 7.50436 6.82
    endloop
  endfacet
  facet normal 0 0.5 -0.866025
    outer loop
      vertex 45.72 7.50436 8.42
      vertex 42.29 8.89 9.22
      vertex 45.72 8.89 9.22
    endloop
  endfacet
  facet normal 0 0.5 -0.866025
    outer loop
      vertex 42.29 8.89 9.22
      vertex 45.72 7.50436 8.42
      vertex 42.1218 7.50436 8.42
    endloop
  endfacet
  facet normal 0.222528 0.974926 -0
    outer loop
      vertex 44.967 17.3437 0
      vertex 43.275 17.7299 15.24
      vertex 44.967 17.3437 15.24
    endloop
  endfacet
  facet normal 0.222528 0.974926 0
    outer loop
      vertex 43.275 17.7299 15.24
      vertex 44.967 17.3437 0
      vertex 43.275 17.7299 0
    endloop
  endfacet
  facet normal -1 0 0
    outer loop
      vertex 0.198062 1.13223 0
      vertex 0.198062 16.6478 15.24
      vertex 0.198062 16.6478 0
    endloop
  endfacet
  facet normal -1 -0 0
    outer loop
      vertex 0.198062 16.6478 15.24
      vertex 0.198062 1.13223 0
      vertex 0.198062 1.13223 15.24
    endloop
  endfacet
  facet normal 0.900977 0.433866 0
    outer loop
      vertex 45.72 15.78 15.24
      vertex 44.967 17.3437 0
      vertex 44.967 17.3437 15.24
    endloop
  endfacet
  facet normal 0.900977 0.433866 0
    outer loop
      vertex 44.967 17.3437 0
      vertex 45.72 15.78 15.24
      vertex 45.72 15.78 0
    endloop
  endfacet
  facet normal 0 1 -0
    outer loop
      vertex 43.275 17.7299 0
      vertex 1.55496 17.7299 15.24
      vertex 43.275 17.7299 15.24
    endloop
  endfacet
  facet normal 0 1 0
    outer loop
      vertex 1.55496 17.7299 15.24
      vertex 43.275 17.7299 0
      vertex 1.55496 17.7299 0
    endloop
  endfacet
  facet normal 1 0 0
    outer loop
      vertex 45.72 15.78 15.24
      vertex 45.72 10.2756 8.42
      vertex 45.72 15.78 0
    endloop
  endfacet
  facet normal 1 0 0
    outer loop
      vertex 45.72 15.78 15.24
      vertex 45.72 8.89 9.22
      vertex 45.72 10.2756 8.42
    endloop
  endfacet
  facet normal 1 -0 0
    outer loop
      vertex 45.72 2 15.24
      vertex 45.72 8.89 9.22
      vertex 45.72 15.78 15.24
    endloop
  endfacet
  facet normal 1 0 0
    outer loop
      vertex 45.72 7.50436 8.42
      vertex 45.72 2 15.24
      vertex 45.72 7.50436 6.82
    endloop
  endfacet
  facet normal 1 0 0
    outer loop
      vertex 45.72 8.89 9.22
      vertex 45.72 2 15.24
      vertex 45.72 7.50436 8.42
    endloop
  endfacet
  facet normal 1 -0 0
    outer loop
      vertex 45.72 10.2756 6.82
      vertex 45.72 15.78 0
      vertex 45.72 10.2756 8.42
    endloop
  endfacet
  facet normal 1 -0 0
    outer loop
      vertex 45.72 8.89 6.02
      vertex 45.72 15.78 0
      vertex 45.72 10.2756 6.82
    endloop
  endfacet
  facet normal 1 0 0
    outer loop
      vertex 45.72 2 0
      vertex 45.72 8.89 6.02
      vertex 45.72 7.50436 6.82
    endloop
  endfacet
  facet normal 1 0 0
    outer loop
      vertex 45.72 8.89 6.02
      vertex 45.72 2 0
      vertex 45.72 15.78 0
    endloop
  endfacet
  facet normal 1 0 0
    outer loop
      vertex 45.72 2 0
      vertex 45.72 7.50436 6.82
      vertex 45.72 2 15.24
    endloop
  endfacet
  facet normal 0 0 1
    outer loop
      vertex 5.84673 3.22638 15.24
      vertex 5.44191 3.58502 15.24
      vertex 5.84673 1.93227 15.24
    endloop
  endfacet
  facet normal 0 0 1
    outer loop
      vertex 40.2781 3.58502 15.24
      vertex 39.7713 3.136 15.24
      vertex 40.112 2.667 15.24
    endloop
  endfacet
  facet normal 0 0 1
    outer loop
      vertex 43.275 17.7299 15.24
      vertex 45.72 15.78 15.24
      vertex 44.967 17.3437 15.24
    endloop
  endfacet
  facet normal 0 0 1
    outer loop
      vertex 45.72 15.78 15.24
      vertex 42.29 8.89 15.24
      vertex 45.72 2 15.24
    endloop
  endfacet
  facet normal 0 0 1
    outer loop
      vertex 45.72 15.78 15.24
      vertex 43.275 17.7299 15.24
      vertex 41.3736 12.6078 15.24
    endloop
  endfacet
  facet normal -0 0 1
    outer loop
      vertex 42.0575 6.97547 15.24
      vertex 45.72 2 15.24
      vertex 42.29 8.89 15.24
    endloop
  endfacet
  facet normal -0 0 1
    outer loop
      vertex 41.3736 5.17221 15.24
      vertex 45.72 2 15.24
      vertex 42.0575 6.97547 15.24
    endloop
  endfacet
  facet normal 0 0 1
    outer loop
      vertex 45.72 15.78 15.24
      vertex 42.0575 10.8045 15.24
      vertex 42.29 8.89 15.24
    endloop
  endfacet
  facet normal 0 0 1
    outer loop
      vertex 45.72 15.78 15.24
      vertex 41.3736 12.6078 15.24
      vertex 42.0575 10.8045 15.24
    endloop
  endfacet
  facet normal 0 0 1
    outer loop
      vertex 43.275 17.7299 15.24
      vertex 40.2781 14.195 15.24
      vertex 41.3736 12.6078 15.24
    endloop
  endfacet
  facet normal 0 0 1
    outer loop
      vertex 43.275 17.7299 15.24
      vertex 40.112 15.113 15.24
      vertex 40.2781 14.195 15.24
    endloop
  endfacet
  facet normal 0 0 1
    outer loop
      vertex 43.275 17.7299 15.24
      vertex 39.2483 16.3018 15.24
      vertex 40.112 15.113 15.24
    endloop
  endfacet
  facet normal -0 0 1
    outer loop
      vertex 37.1268 16.3701 15.24
      vertex 39.2483 16.3018 15.24
      vertex 43.275 17.7299 15.24
    endloop
  endfacet
  facet normal 0 0 1
    outer loop
      vertex 39.2483 16.3018 15.24
      vertex 37.1268 16.3701 15.24
      vertex 38.0184 15.9022 15.24
    endloop
  endfacet
  facet normal 0 0 1
    outer loop
      vertex 43.275 17.7299 15.24
      vertex 35.2543 16.8317 15.24
      vertex 37.1268 16.3701 15.24
    endloop
  endfacet
  facet normal 0 0 1
    outer loop
      vertex 43.275 17.7299 15.24
      vertex 33.3257 16.8317 15.24
      vertex 35.2543 16.8317 15.24
    endloop
  endfacet
  facet normal 0 0 1
    outer loop
      vertex 26.5225 10.8045 15.24
      vertex 19.43 8.89 15.24
      vertex 26.29 8.89 15.24
    endloop
  endfacet
  facet normal 0 0 1
    outer loop
      vertex 19.1975 10.8045 15.24
      vertex 26.5225 10.8045 15.24
      vertex 27.2064 12.6078 15.24
    endloop
  endfacet
  facet normal 0 0 1
    outer loop
      vertex 18.5136 12.6078 15.24
      vertex 27.2064 12.6078 15.24
      vertex 28.3019 14.195 15.24
    endloop
  endfacet
  facet normal 0 0 1
    outer loop
      vertex 17.4181 14.195 15.24
      vertex 28.3019 14.195 15.24
      vertex 29.7455 15.4739 15.24
    endloop
  endfacet
  facet normal 0 0 1
    outer loop
      vertex 26.5225 10.8045 15.24
      vertex 19.1975 10.8045 15.24
      vertex 19.43 8.89 15.24
    endloop
  endfacet
  facet normal 0 0 1
    outer loop
      vertex 15.9745 15.4739 15.24
      vertex 29.7455 15.4739 15.24
      vertex 31.4532 16.3701 15.24
    endloop
  endfacet
  facet normal 0 0 1
    outer loop
      vertex 27.2064 12.6078 15.24
      vertex 18.5136 12.6078 15.24
      vertex 19.1975 10.8045 15.24
    endloop
  endfacet
  facet normal 0 0 1
    outer loop
      vertex 28.3019 14.195 15.24
      vertex 17.4181 14.195 15.24
      vertex 18.5136 12.6078 15.24
    endloop
  endfacet
  facet normal 0 0 1
    outer loop
      vertex 14.2668 16.3701 15.24
      vertex 31.4532 16.3701 15.24
      vertex 33.3257 16.8317 15.24
    endloop
  endfacet
  facet normal 0 0 1
    outer loop
      vertex 29.7455 15.4739 15.24
      vertex 15.9745 15.4739 15.24
      vertex 17.4181 14.195 15.24
    endloop
  endfacet
  facet normal 0 0 1
    outer loop
      vertex 12.3943 16.8317 15.24
      vertex 33.3257 16.8317 15.24
      vertex 43.275 17.7299 15.24
    endloop
  endfacet
  facet normal 0 0 1
    outer loop
      vertex 31.4532 16.3701 15.24
      vertex 14.2668 16.3701 15.24
      vertex 15.9745 15.4739 15.24
    endloop
  endfacet
  facet normal 0 0 1
    outer loop
      vertex 33.3257 16.8317 15.24
      vertex 12.3943 16.8317 15.24
      vertex 14.2668 16.3701 15.24
    endloop
  endfacet
  facet normal -0 0 1
    outer loop
      vertex 1.55496 17.7299 15.24
      vertex 12.3943 16.8317 15.24
      vertex 43.275 17.7299 15.24
    endloop
  endfacet
  facet normal 0 0 1
    outer loop
      vertex 8.59316 16.3701 15.24
      vertex 7.24427 16.3018 15.24
      vertex 7.58071 15.8388 15.24
    endloop
  endfacet
  facet normal 0 0 1
    outer loop
      vertex 10.4657 16.8317 15.24
      vertex 7.24427 16.3018 15.24
      vertex 8.59316 16.3701 15.24
    endloop
  endfacet
  facet normal 0 0 1
    outer loop
      vertex 5.84673 15.8477 15.24
      vertex 5.44191 14.195 15.24
      vertex 5.84673 14.5536 15.24
    endloop
  endfacet
  facet normal 0 0 1
    outer loop
      vertex 1.55496 17.7299 15.24
      vertex 5.44191 14.195 15.24
      vertex 5.84673 15.8477 15.24
    endloop
  endfacet
  facet normal 0 0 1
    outer loop
      vertex 4.34635 12.6078 15.24
      vertex 0.198062 16.6478 15.24
      vertex 3.66247 10.8045 15.24
    endloop
  endfacet
  facet normal -0 0 1
    outer loop
      vertex 0.198062 16.6478 15.24
      vertex 4.34635 12.6078 15.24
      vertex 1.55496 17.7299 15.24
    endloop
  endfacet
  facet normal 0 0 1
    outer loop
      vertex 5.44191 14.195 15.24
      vertex 1.55496 17.7299 15.24
      vertex 4.34635 12.6078 15.24
    endloop
  endfacet
  facet normal 0 0 1
    outer loop
      vertex 7.24427 16.3018 15.24
      vertex 1.55496 17.7299 15.24
      vertex 5.84673 15.8477 15.24
    endloop
  endfacet
  facet normal 0 0 1
    outer loop
      vertex 10.4657 16.8317 15.24
      vertex 1.55496 17.7299 15.24
      vertex 7.24427 16.3018 15.24
    endloop
  endfacet
  facet normal 0 0 1
    outer loop
      vertex 12.3943 16.8317 15.24
      vertex 1.55496 17.7299 15.24
      vertex 10.4657 16.8317 15.24
    endloop
  endfacet
  facet normal 0 -0 1
    outer loop
      vertex 43.275 0.0501432 15.24
      vertex 45.72 2 15.24
      vertex 41.3736 5.17221 15.24
    endloop
  endfacet
  facet normal 0 0 1
    outer loop
      vertex 45.72 2 15.24
      vertex 43.275 0.0501432 15.24
      vertex 44.967 0.436337 15.24
    endloop
  endfacet
  facet normal -0 0 1
    outer loop
      vertex 40.2781 3.58502 15.24
      vertex 43.275 0.0501432 15.24
      vertex 41.3736 5.17221 15.24
    endloop
  endfacet
  facet normal -0 0 1
    outer loop
      vertex 40.112 2.667 15.24
      vertex 43.275 0.0501432 15.24
      vertex 40.2781 3.58502 15.24
    endloop
  endfacet
  facet normal -0 0 1
    outer loop
      vertex 39.2483 1.47818 15.24
      vertex 43.275 0.0501432 15.24
      vertex 40.112 2.667 15.24
    endloop
  endfacet
  facet normal 0 0 1
    outer loop
      vertex 37.1268 1.40987 15.24
      vertex 39.2483 1.47818 15.24
      vertex 38.0184 1.87779 15.24
    endloop
  endfacet
  facet normal 0 0 1
    outer loop
      vertex 39.2483 1.47818 15.24
      vertex 37.1268 1.40987 15.24
      vertex 43.275 0.0501432 15.24
    endloop
  endfacet
  facet normal -0 0 1
    outer loop
      vertex 35.2543 0.948329 15.24
      vertex 43.275 0.0501432 15.24
      vertex 37.1268 1.40987 15.24
    endloop
  endfacet
  facet normal -0 0 1
    outer loop
      vertex 33.3257 0.948329 15.24
      vertex 43.275 0.0501432 15.24
      vertex 35.2543 0.948329 15.24
    endloop
  endfacet
  facet normal -0 0 1
    outer loop
      vertex 19.43 8.89 15.24
      vertex 26.5225 6.97547 15.24
      vertex 26.29 8.89 15.24
    endloop
  endfacet
  facet normal 0 0 1
    outer loop
      vertex 19.1975 6.97547 15.24
      vertex 26.5225 6.97547 15.24
      vertex 19.43 8.89 15.24
    endloop
  endfacet
  facet normal 0 0 1
    outer loop
      vertex 26.5225 6.97547 15.24
      vertex 19.1975 6.97547 15.24
      vertex 27.2064 5.17221 15.24
    endloop
  endfacet
  facet normal 0 0 1
    outer loop
      vertex 18.5136 5.17221 15.24
      vertex 27.2064 5.17221 15.24
      vertex 19.1975 6.97547 15.24
    endloop
  endfacet
  facet normal 0 0 1
    outer loop
      vertex 27.2064 5.17221 15.24
      vertex 18.5136 5.17221 15.24
      vertex 28.3019 3.58502 15.24
    endloop
  endfacet
  facet normal 0 0 1
    outer loop
      vertex 17.4181 3.58502 15.24
      vertex 28.3019 3.58502 15.24
      vertex 18.5136 5.17221 15.24
    endloop
  endfacet
  facet normal 0 0 1
    outer loop
      vertex 28.3019 3.58502 15.24
      vertex 17.4181 3.58502 15.24
      vertex 29.7455 2.30613 15.24
    endloop
  endfacet
  facet normal 0 0 1
    outer loop
      vertex 15.9745 2.30613 15.24
      vertex 29.7455 2.30613 15.24
      vertex 17.4181 3.58502 15.24
    endloop
  endfacet
  facet normal 0 0 1
    outer loop
      vertex 29.7455 2.30613 15.24
      vertex 15.9745 2.30613 15.24
      vertex 31.4532 1.40987 15.24
    endloop
  endfacet
  facet normal 0 0 1
    outer loop
      vertex 14.2668 1.40987 15.24
      vertex 31.4532 1.40987 15.24
      vertex 15.9745 2.30613 15.24
    endloop
  endfacet
  facet normal 0 0 1
    outer loop
      vertex 31.4532 1.40987 15.24
      vertex 14.2668 1.40987 15.24
      vertex 33.3257 0.948329 15.24
    endloop
  endfacet
  facet normal 0 0 1
    outer loop
      vertex 12.3943 0.948329 15.24
      vertex 33.3257 0.948329 15.24
      vertex 14.2668 1.40987 15.24
    endloop
  endfacet
  facet normal 0 0 1
    outer loop
      vertex 33.3257 0.948329 15.24
      vertex 12.3943 0.948329 15.24
      vertex 43.275 0.0501432 15.24
    endloop
  endfacet
  facet normal 0 0 1
    outer loop
      vertex 1.55496 0.0501432 15.24
      vertex 12.3943 0.948329 15.24
      vertex 10.4657 0.948329 15.24
    endloop
  endfacet
  facet normal -0 0 1
    outer loop
      vertex 7.24427 1.47818 15.24
      vertex 8.59316 1.40987 15.24
      vertex 7.58071 1.94125 15.24
    endloop
  endfacet
  facet normal 0 0 1
    outer loop
      vertex 7.24427 1.47818 15.24
      vertex 10.4657 0.948329 15.24
      vertex 8.59316 1.40987 15.24
    endloop
  endfacet
  facet normal 0 0 1
    outer loop
      vertex 1.55496 0.0501432 15.24
      vertex 5.44191 3.58502 15.24
      vertex 4.34635 5.17221 15.24
    endloop
  endfacet
  facet normal 0 0 1
    outer loop
      vertex 3.66247 10.8045 15.24
      vertex 0.198062 16.6478 15.24
      vertex 3.43 8.89 15.24
    endloop
  endfacet
  facet normal 0 0 1
    outer loop
      vertex 12.3943 0.948329 15.24
      vertex 1.55496 0.0501432 15.24
      vertex 43.275 0.0501432 15.24
    endloop
  endfacet
  facet normal 0 0 1
    outer loop
      vertex 7.24427 1.47818 15.24
      vertex 1.55496 0.0501432 15.24
      vertex 10.4657 0.948329 15.24
    endloop
  endfacet
  facet normal 0 0 1
    outer loop
      vertex 5.84673 1.93227 15.24
      vertex 1.55496 0.0501432 15.24
      vertex 7.24427 1.47818 15.24
    endloop
  endfacet
  facet normal 0 0 1
    outer loop
      vertex 5.44191 3.58502 15.24
      vertex 1.55496 0.0501432 15.24
      vertex 5.84673 1.93227 15.24
    endloop
  endfacet
  facet normal 0 0 1
    outer loop
      vertex 0.198062 1.13223 15.24
      vertex 4.34635 5.17221 15.24
      vertex 3.66247 6.97547 15.24
    endloop
  endfacet
  facet normal 0 0 1
    outer loop
      vertex 0.198062 1.13223 15.24
      vertex 3.43 8.89 15.24
      vertex 0.198062 16.6478 15.24
    endloop
  endfacet
  facet normal 0 0 1
    outer loop
      vertex 3.43 8.89 15.24
      vertex 0.198062 1.13223 15.24
      vertex 3.66247 6.97547 15.24
    endloop
  endfacet
  facet normal 0 0 1
    outer loop
      vertex 4.34635 5.17221 15.24
      vertex 0.198062 1.13223 15.24
      vertex 1.55496 0.0501432 15.24
    endloop
  endfacet
  facet normal 0 0 1
    outer loop
      vertex 40.2781 14.195 15.24
      vertex 40.112 15.113 15.24
      vertex 39.7713 14.644 15.24
    endloop
  endfacet
  facet normal -0.623493 0.781829 0
    outer loop
      vertex 1.55496 17.7299 0
      vertex 0.198062 16.6478 15.24
      vertex 1.55496 17.7299 15.24
    endloop
  endfacet
  facet normal -0.623493 0.781829 0
    outer loop
      vertex 0.198062 16.6478 15.24
      vertex 1.55496 17.7299 0
      vertex 0.198062 16.6478 0
    endloop
  endfacet
  facet normal -0 0 -1
    outer loop
      vertex 5.84673 14.5536 0
      vertex 5.44191 14.195 0
      vertex 5.84673 15.8477 0
    endloop
  endfacet
  facet normal 0 0 -1
    outer loop
      vertex 40.2781 14.195 0
      vertex 39.7713 14.644 0
      vertex 40.112 15.113 0
    endloop
  endfacet
  facet normal 0 0 -1
    outer loop
      vertex 43.275 0.0501432 0
      vertex 45.72 2 0
      vertex 44.967 0.436337 0
    endloop
  endfacet
  facet normal 0 0 -1
    outer loop
      vertex 45.72 2 0
      vertex 42.29 8.89 0
      vertex 45.72 15.78 0
    endloop
  endfacet
  facet normal -0 0 -1
    outer loop
      vertex 45.72 2 0
      vertex 43.275 0.0501432 0
      vertex 41.3736 5.17221 0
    endloop
  endfacet
  facet normal 0 0 -1
    outer loop
      vertex 42.0575 10.8045 0
      vertex 45.72 15.78 0
      vertex 42.29 8.89 0
    endloop
  endfacet
  facet normal 0 0 -1
    outer loop
      vertex 41.3736 12.6078 0
      vertex 45.72 15.78 0
      vertex 42.0575 10.8045 0
    endloop
  endfacet
  facet normal 0 0 -1
    outer loop
      vertex 45.72 2 0
      vertex 42.0575 6.97547 0
      vertex 42.29 8.89 0
    endloop
  endfacet
  facet normal 0 0 -1
    outer loop
      vertex 45.72 2 0
      vertex 41.3736 5.17221 0
      vertex 42.0575 6.97547 0
    endloop
  endfacet
  facet normal 0 0 -1
    outer loop
      vertex 43.275 0.0501432 0
      vertex 40.2781 3.58502 0
      vertex 41.3736 5.17221 0
    endloop
  endfacet
  facet normal 0 0 -1
    outer loop
      vertex 43.275 0.0501432 0
      vertex 40.112 2.667 0
      vertex 40.2781 3.58502 0
    endloop
  endfacet
  facet normal 0 0 -1
    outer loop
      vertex 43.275 0.0501432 0
      vertex 39.2483 1.47818 0
      vertex 40.112 2.667 0
    endloop
  endfacet
  facet normal 0 0 -1
    outer loop
      vertex 37.1268 1.40987 0
      vertex 39.2483 1.47818 0
      vertex 43.275 0.0501432 0
    endloop
  endfacet
  facet normal -0 0 -1
    outer loop
      vertex 39.2483 1.47818 0
      vertex 37.1268 1.40987 0
      vertex 38.0184 1.87779 0
    endloop
  endfacet
  facet normal 0 0 -1
    outer loop
      vertex 43.275 0.0501432 0
      vertex 35.2543 0.948329 0
      vertex 37.1268 1.40987 0
    endloop
  endfacet
  facet normal 0 0 -1
    outer loop
      vertex 43.275 0.0501432 0
      vertex 33.3257 0.948329 0
      vertex 35.2543 0.948329 0
    endloop
  endfacet
  facet normal -0 0 -1
    outer loop
      vertex 26.5225 6.97547 0
      vertex 23.36 3.556 0
      vertex 26.29 8.89 0
    endloop
  endfacet
  facet normal -0 0 -1
    outer loop
      vertex 27.2064 5.17221 0
      vertex 23.36 3.556 0
      vertex 26.5225 6.97547 0
    endloop
  endfacet
  facet normal -0 0 -1
    outer loop
      vertex 28.3019 3.58502 0
      vertex 23.36 3.556 0
      vertex 27.2064 5.17221 0
    endloop
  endfacet
  facet normal 0 0 -1
    outer loop
      vertex 29.7455 2.30613 0
      vertex 23.36 3.556 0
      vertex 28.3019 3.58502 0
    endloop
  endfacet
  facet normal 0 0 -1
    outer loop
      vertex 31.4532 1.40987 0
      vertex 23.36 3.556 0
      vertex 29.7455 2.30613 0
    endloop
  endfacet
  facet normal 0 0 -1
    outer loop
      vertex 31.4532 1.40987 0
      vertex 22.36 3.556 0
      vertex 23.36 3.556 0
    endloop
  endfacet
  facet normal 0 0 -1
    outer loop
      vertex 14.2668 1.40987 0
      vertex 31.4532 1.40987 0
      vertex 33.3257 0.948329 0
    endloop
  endfacet
  facet normal 0 0 -1
    outer loop
      vertex 22.36 3.556 0
      vertex 19.43 8.89 0
      vertex 22.36 14.224 0
    endloop
  endfacet
  facet normal 0 0 -1
    outer loop
      vertex 22.36 3.556 0
      vertex 19.1975 6.97547 0
      vertex 19.43 8.89 0
    endloop
  endfacet
  facet normal 0 0 -1
    outer loop
      vertex 22.36 3.556 0
      vertex 18.5136 5.17221 0
      vertex 19.1975 6.97547 0
    endloop
  endfacet
  facet normal 0 0 -1
    outer loop
      vertex 22.36 3.556 0
      vertex 17.4181 3.58502 0
      vertex 18.5136 5.17221 0
    endloop
  endfacet
  facet normal 0 0 -1
    outer loop
      vertex 31.4532 1.40987 0
      vertex 14.2668 1.40987 0
      vertex 22.36 3.556 0
    endloop
  endfacet
  facet normal -0 0 -1
    outer loop
      vertex 22.36 3.556 0
      vertex 15.9745 2.30613 0
      vertex 17.4181 3.58502 0
    endloop
  endfacet
  facet normal 0 0 -1
    outer loop
      vertex 12.3943 0.948329 0
      vertex 33.3257 0.948329 0
      vertex 43.275 0.0501432 0
    endloop
  endfacet
  facet normal 0 0 -1
    outer loop
      vertex 22.36 3.556 0
      vertex 14.2668 1.40987 0
      vertex 15.9745 2.30613 0
    endloop
  endfacet
  facet normal 0 0 -1
    outer loop
      vertex 33.3257 0.948329 0
      vertex 12.3943 0.948329 0
      vertex 14.2668 1.40987 0
    endloop
  endfacet
  facet normal 0 0 -1
    outer loop
      vertex 1.55496 0.0501432 0
      vertex 12.3943 0.948329 0
      vertex 43.275 0.0501432 0
    endloop
  endfacet
  facet normal 0 0 -1
    outer loop
      vertex 8.59316 1.40987 0
      vertex 7.24427 1.47818 0
      vertex 7.58071 1.94125 0
    endloop
  endfacet
  facet normal 0 0 -1
    outer loop
      vertex 10.4657 0.948329 0
      vertex 7.24427 1.47818 0
      vertex 8.59316 1.40987 0
    endloop
  endfacet
  facet normal 0 0 -1
    outer loop
      vertex 5.84673 1.93227 0
      vertex 5.44191 3.58502 0
      vertex 5.84673 3.22638 0
    endloop
  endfacet
  facet normal 0 0 -1
    outer loop
      vertex 1.55496 0.0501432 0
      vertex 5.44191 3.58502 0
      vertex 5.84673 1.93227 0
    endloop
  endfacet
  facet normal -0 0 -1
    outer loop
      vertex 4.34635 5.17221 0
      vertex 0.198062 1.13223 0
      vertex 3.66247 6.97547 0
    endloop
  endfacet
  facet normal 0 0 -1
    outer loop
      vertex 0.198062 1.13223 0
      vertex 4.34635 5.17221 0
      vertex 1.55496 0.0501432 0
    endloop
  endfacet
  facet normal -0 0 -1
    outer loop
      vertex 5.44191 3.58502 0
      vertex 1.55496 0.0501432 0
      vertex 4.34635 5.17221 0
    endloop
  endfacet
  facet normal -0 0 -1
    outer loop
      vertex 7.24427 1.47818 0
      vertex 1.55496 0.0501432 0
      vertex 5.84673 1.93227 0
    endloop
  endfacet
  facet normal -0 0 -1
    outer loop
      vertex 10.4657 0.948329 0
      vertex 1.55496 0.0501432 0
      vertex 7.24427 1.47818 0
    endloop
  endfacet
  facet normal -0 0 -1
    outer loop
      vertex 12.3943 0.948329 0
      vertex 1.55496 0.0501432 0
      vertex 10.4657 0.948329 0
    endloop
  endfacet
  facet normal 0 -0 -1
    outer loop
      vertex 43.275 17.7299 0
      vertex 45.72 15.78 0
      vertex 41.3736 12.6078 0
    endloop
  endfacet
  facet normal 0 0 -1
    outer loop
      vertex 45.72 15.78 0
      vertex 43.275 17.7299 0
      vertex 44.967 17.3437 0
    endloop
  endfacet
  facet normal 0 0 -1
    outer loop
      vertex 40.2781 14.195 0
      vertex 43.275 17.7299 0
      vertex 41.3736 12.6078 0
    endloop
  endfacet
  facet normal 0 0 -1
    outer loop
      vertex 40.112 15.113 0
      vertex 43.275 17.7299 0
      vertex 40.2781 14.195 0
    endloop
  endfacet
  facet normal 0 0 -1
    outer loop
      vertex 39.2483 16.3018 0
      vertex 43.275 17.7299 0
      vertex 40.112 15.113 0
    endloop
  endfacet
  facet normal 0 0 -1
    outer loop
      vertex 37.1268 16.3701 0
      vertex 39.2483 16.3018 0
      vertex 38.0184 15.9022 0
    endloop
  endfacet
  facet normal 0 0 -1
    outer loop
      vertex 39.2483 16.3018 0
      vertex 37.1268 16.3701 0
      vertex 43.275 17.7299 0
    endloop
  endfacet
  facet normal 0 0 -1
    outer loop
      vertex 35.2543 16.8317 0
      vertex 43.275 17.7299 0
      vertex 37.1268 16.3701 0
    endloop
  endfacet
  facet normal 0 0 -1
    outer loop
      vertex 33.3257 16.8317 0
      vertex 43.275 17.7299 0
      vertex 35.2543 16.8317 0
    endloop
  endfacet
  facet normal 0 0 -1
    outer loop
      vertex 23.36 14.224 0
      vertex 26.29 8.89 0
      vertex 23.36 3.556 0
    endloop
  endfacet
  facet normal 0 0 -1
    outer loop
      vertex 26.29 8.89 0
      vertex 23.36 14.224 0
      vertex 26.5225 10.8045 0
    endloop
  endfacet
  facet normal 0 0 -1
    outer loop
      vertex 26.5225 10.8045 0
      vertex 23.36 14.224 0
      vertex 27.2064 12.6078 0
    endloop
  endfacet
  facet normal 0 0 -1
    outer loop
      vertex 23.36 14.224 0
      vertex 28.3019 14.195 0
      vertex 27.2064 12.6078 0
    endloop
  endfacet
  facet normal 0 0 -1
    outer loop
      vertex 23.36 14.224 0
      vertex 29.7455 15.4739 0
      vertex 28.3019 14.195 0
    endloop
  endfacet
  facet normal 0 0 -1
    outer loop
      vertex 23.36 14.224 0
      vertex 31.4532 16.3701 0
      vertex 29.7455 15.4739 0
    endloop
  endfacet
  facet normal 0 0 -1
    outer loop
      vertex 22.36 14.224 0
      vertex 31.4532 16.3701 0
      vertex 23.36 14.224 0
    endloop
  endfacet
  facet normal 0 0 -1
    outer loop
      vertex 14.2668 16.3701 0
      vertex 31.4532 16.3701 0
      vertex 22.36 14.224 0
    endloop
  endfacet
  facet normal 0 0 -1
    outer loop
      vertex 19.1975 10.8045 0
      vertex 22.36 14.224 0
      vertex 19.43 8.89 0
    endloop
  endfacet
  facet normal 0 0 -1
    outer loop
      vertex 18.5136 12.6078 0
      vertex 22.36 14.224 0
      vertex 19.1975 10.8045 0
    endloop
  endfacet
  facet normal 0 0 -1
    outer loop
      vertex 17.4181 14.195 0
      vertex 22.36 14.224 0
      vertex 18.5136 12.6078 0
    endloop
  endfacet
  facet normal 0 0 -1
    outer loop
      vertex 15.9745 15.4739 0
      vertex 22.36 14.224 0
      vertex 17.4181 14.195 0
    endloop
  endfacet
  facet normal 0 0 -1
    outer loop
      vertex 14.2668 16.3701 0
      vertex 22.36 14.224 0
      vertex 15.9745 15.4739 0
    endloop
  endfacet
  facet normal 0 0 -1
    outer loop
      vertex 31.4532 16.3701 0
      vertex 14.2668 16.3701 0
      vertex 33.3257 16.8317 0
    endloop
  endfacet
  facet normal 0 0 -1
    outer loop
      vertex 12.3943 16.8317 0
      vertex 33.3257 16.8317 0
      vertex 14.2668 16.3701 0
    endloop
  endfacet
  facet normal 0 0 -1
    outer loop
      vertex 33.3257 16.8317 0
      vertex 12.3943 16.8317 0
      vertex 43.275 17.7299 0
    endloop
  endfacet
  facet normal 0 0 -1
    outer loop
      vertex 1.55496 17.7299 0
      vertex 12.3943 16.8317 0
      vertex 10.4657 16.8317 0
    endloop
  endfacet
  facet normal 0 0 -1
    outer loop
      vertex 7.24427 16.3018 0
      vertex 8.59316 16.3701 0
      vertex 7.58071 15.8388 0
    endloop
  endfacet
  facet normal 0 0 -1
    outer loop
      vertex 7.24427 16.3018 0
      vertex 10.4657 16.8317 0
      vertex 8.59316 16.3701 0
    endloop
  endfacet
  facet normal 0 0 -1
    outer loop
      vertex 1.55496 17.7299 0
      vertex 5.44191 14.195 0
      vertex 4.34635 12.6078 0
    endloop
  endfacet
  facet normal -0 0 -1
    outer loop
      vertex 3.66247 6.97547 0
      vertex 0.198062 1.13223 0
      vertex 3.43 8.89 0
    endloop
  endfacet
  facet normal 0 0 -1
    outer loop
      vertex 12.3943 16.8317 0
      vertex 1.55496 17.7299 0
      vertex 43.275 17.7299 0
    endloop
  endfacet
  facet normal 0 0 -1
    outer loop
      vertex 7.24427 16.3018 0
      vertex 1.55496 17.7299 0
      vertex 10.4657 16.8317 0
    endloop
  endfacet
  facet normal 0 0 -1
    outer loop
      vertex 5.84673 15.8477 0
      vertex 1.55496 17.7299 0
      vertex 7.24427 16.3018 0
    endloop
  endfacet
  facet normal 0 0 -1
    outer loop
      vertex 5.44191 14.195 0
      vertex 1.55496 17.7299 0
      vertex 5.84673 15.8477 0
    endloop
  endfacet
  facet normal 0 0 -1
    outer loop
      vertex 0.198062 16.6478 0
      vertex 4.34635 12.6078 0
      vertex 3.66247 10.8045 0
    endloop
  endfacet
  facet normal 0 0 -1
    outer loop
      vertex 0.198062 16.6478 0
      vertex 3.43 8.89 0
      vertex 0.198062 1.13223 0
    endloop
  endfacet
  facet normal 0 0 -1
    outer loop
      vertex 3.43 8.89 0
      vertex 0.198062 16.6478 0
      vertex 3.66247 10.8045 0
    endloop
  endfacet
  facet normal 0 0 -1
    outer loop
      vertex 4.34635 12.6078 0
      vertex 0.198062 16.6478 0
      vertex 1.55496 17.7299 0
    endloop
  endfacet
  facet normal 0 0 -1
    outer loop
      vertex 40.2781 3.58502 0
      vertex 40.112 2.667 0
      vertex 39.7713 3.136 0
    endloop
  endfacet
  facet normal -0.623489 -0.781832 0
    outer loop
      vertex 0.198062 1.13223 0
      vertex 1.55496 0.0501432 15.24
      vertex 0.198062 1.13223 15.24
    endloop
  endfacet
  facet normal -0.623489 -0.781832 -0
    outer loop
      vertex 1.55496 0.0501432 15.24
      vertex 0.198062 1.13223 0
      vertex 1.55496 0.0501432 0
    endloop
  endfacet
  facet normal 0.222524 -0.974927 0
    outer loop
      vertex 43.275 0.0501432 0
      vertex 44.967 0.436337 15.24
      vertex 43.275 0.0501432 15.24
    endloop
  endfacet
  facet normal 0.222524 -0.974927 0
    outer loop
      vertex 44.967 0.436337 15.24
      vertex 43.275 0.0501432 0
      vertex 44.967 0.436337 0
    endloop
  endfacet
  facet normal 0 -1 0
    outer loop
      vertex 1.55496 0.0501432 15.24
      vertex 20.86 0.0501432 7.62
      vertex 43.275 0.0501432 15.24
    endloop
  endfacet
  facet normal 0 -1 0
    outer loop
      vertex 1.55496 0.0501432 0
      vertex 20.86 0.0501432 7.62
      vertex 1.55496 0.0501432 15.24
    endloop
  endfacet
  facet normal 0 -1 -0
    outer loop
      vertex 20.86 0.0501432 1.524
      vertex 1.55496 0.0501432 0
      vertex 24.86 0.0501432 1.524
    endloop
  endfacet
  facet normal 0 -1 -0
    outer loop
      vertex 20.86 0.0501432 7.62
      vertex 1.55496 0.0501432 0
      vertex 20.86 0.0501432 1.524
    endloop
  endfacet
  facet normal 0 -1 0
    outer loop
      vertex 24.86 0.0501432 7.62
      vertex 43.275 0.0501432 15.24
      vertex 20.86 0.0501432 7.62
    endloop
  endfacet
  facet normal 0 -1 0
    outer loop
      vertex 43.275 0.0501432 0
      vertex 24.86 0.0501432 7.62
      vertex 24.86 0.0501432 1.524
    endloop
  endfacet
  facet normal 0 -1 0
    outer loop
      vertex 24.86 0.0501432 7.62
      vertex 43.275 0.0501432 0
      vertex 43.275 0.0501432 15.24
    endloop
  endfacet
  facet normal 0 -1 0
    outer loop
      vertex 43.275 0.0501432 0
      vertex 24.86 0.0501432 1.524
      vertex 1.55496 0.0501432 0
    endloop
  endfacet
  facet normal 0.900973 -0.433874 0
    outer loop
      vertex 44.967 0.436337 15.24
      vertex 45.72 2 0
      vertex 45.72 2 15.24
    endloop
  endfacet
  facet normal 0.900973 -0.433874 0
    outer loop
      vertex 45.72 2 0
      vertex 44.967 0.436337 15.24
      vertex 44.967 0.436337 0
    endloop
  endfacet
  facet normal -0.992707 -0.120556 0
    outer loop
      vertex 19.43 8.89 0
      vertex 19.1975 10.8045 15.24
      vertex 19.1975 10.8045 0
    endloop
  endfacet
  facet normal -0.992707 -0.120556 0
    outer loop
      vertex 19.1975 10.8045 15.24
      vertex 19.43 8.89 0
      vertex 19.43 8.89 15.24
    endloop
  endfacet
  facet normal 0.992708 -0.120541 0
    outer loop
      vertex 3.43 8.89 15.24
      vertex 3.66247 10.8045 0
      vertex 3.66247 10.8045 15.24
    endloop
  endfacet
  facet normal 0.992708 -0.120541 0
    outer loop
      vertex 3.66247 10.8045 0
      vertex 3.43 8.89 15.24
      vertex 3.43 8.89 0
    endloop
  endfacet
  facet normal 0 -1 0
    outer loop
      vertex 10.4657 16.8317 0
      vertex 12.3943 16.8317 15.24
      vertex 10.4657 16.8317 15.24
    endloop
  endfacet
  facet normal 0 -1 -0
    outer loop
      vertex 12.3943 16.8317 15.24
      vertex 10.4657 16.8317 0
      vertex 12.3943 16.8317 0
    endloop
  endfacet
  facet normal 0 1 -0
    outer loop
      vertex 12.3943 0.948329 0
      vertex 10.4657 0.948329 15.24
      vertex 12.3943 0.948329 15.24
    endloop
  endfacet
  facet normal 0 1 0
    outer loop
      vertex 10.4657 0.948329 15.24
      vertex 12.3943 0.948329 0
      vertex 10.4657 0.948329 0
    endloop
  endfacet
  facet normal -0.663117 -0.748515 0
    outer loop
      vertex 15.9745 15.4739 0
      vertex 17.4181 14.195 15.24
      vertex 15.9745 15.4739 15.24
    endloop
  endfacet
  facet normal -0.663117 -0.748515 -0
    outer loop
      vertex 17.4181 14.195 15.24
      vertex 15.9745 15.4739 0
      vertex 17.4181 14.195 0
    endloop
  endfacet
  facet normal -0.935016 -0.354604 0
    outer loop
      vertex 19.1975 10.8045 0
      vertex 18.5136 12.6078 15.24
      vertex 18.5136 12.6078 0
    endloop
  endfacet
  facet normal -0.935016 -0.354604 0
    outer loop
      vertex 18.5136 12.6078 15.24
      vertex 19.1975 10.8045 0
      vertex 19.1975 10.8045 15.24
    endloop
  endfacet
  facet normal -0.464695 -0.885471 0
    outer loop
      vertex 14.2668 16.3701 0
      vertex 15.9745 15.4739 15.24
      vertex 14.2668 16.3701 15.24
    endloop
  endfacet
  facet normal -0.464695 -0.885471 -0
    outer loop
      vertex 15.9745 15.4739 15.24
      vertex 14.2668 16.3701 0
      vertex 15.9745 15.4739 0
    endloop
  endfacet
  facet normal 0.663082 -0.748547 0
    outer loop
      vertex 5.44191 14.195 0
      vertex 5.84673 14.5536 15.24
      vertex 5.44191 14.195 15.24
    endloop
  endfacet
  facet normal 0.663082 -0.748547 0
    outer loop
      vertex 5.84673 14.5536 15.24
      vertex 5.44191 14.195 0
      vertex 5.84673 14.5536 0
    endloop
  endfacet
  facet normal 0.822985 -0.568063 0
    outer loop
      vertex 4.34635 12.6078 15.24
      vertex 5.44191 14.195 0
      vertex 5.44191 14.195 15.24
    endloop
  endfacet
  facet normal 0.822985 -0.568063 0
    outer loop
      vertex 5.44191 14.195 0
      vertex 4.34635 12.6078 15.24
      vertex 4.34635 12.6078 0
    endloop
  endfacet
  facet normal 0.239345 -0.970935 0
    outer loop
      vertex 8.59316 16.3701 0
      vertex 10.4657 16.8317 15.24
      vertex 8.59316 16.3701 15.24
    endloop
  endfacet
  facet normal 0.239345 -0.970935 0
    outer loop
      vertex 10.4657 16.8317 15.24
      vertex 8.59316 16.3701 0
      vertex 10.4657 16.8317 0
    endloop
  endfacet
  facet normal -0.823 -0.568042 0
    outer loop
      vertex 18.5136 12.6078 0
      vertex 17.4181 14.195 15.24
      vertex 17.4181 14.195 0
    endloop
  endfacet
  facet normal -0.823 -0.568042 0
    outer loop
      vertex 17.4181 14.195 15.24
      vertex 18.5136 12.6078 0
      vertex 18.5136 12.6078 15.24
    endloop
  endfacet
  facet normal -0.23935 -0.970933 0
    outer loop
      vertex 12.3943 16.8317 0
      vertex 14.2668 16.3701 15.24
      vertex 12.3943 16.8317 15.24
    endloop
  endfacet
  facet normal -0.23935 -0.970933 -0
    outer loop
      vertex 14.2668 16.3701 15.24
      vertex 12.3943 16.8317 0
      vertex 14.2668 16.3701 0
    endloop
  endfacet
  facet normal 0.93502 -0.354595 0
    outer loop
      vertex 3.66247 10.8045 15.24
      vertex 4.34635 12.6078 0
      vertex 4.34635 12.6078 15.24
    endloop
  endfacet
  facet normal 0.93502 -0.354595 0
    outer loop
      vertex 4.34635 12.6078 0
      vertex 3.66247 10.8045 15.24
      vertex 3.66247 10.8045 0
    endloop
  endfacet
  facet normal 0.464672 -0.885483 0
    outer loop
      vertex 7.58071 15.8388 0
      vertex 8.59316 16.3701 15.24
      vertex 7.58071 15.8388 15.24
    endloop
  endfacet
  facet normal 0.464672 -0.885483 0
    outer loop
      vertex 8.59316 16.3701 15.24
      vertex 7.58071 15.8388 0
      vertex 8.59316 16.3701 0
    endloop
  endfacet
  facet normal -0.992707 0.120554 0
    outer loop
      vertex 19.1975 6.97547 0
      vertex 19.43 8.89 15.24
      vertex 19.43 8.89 0
    endloop
  endfacet
  facet normal -0.992707 0.120554 0
    outer loop
      vertex 19.43 8.89 15.24
      vertex 19.1975 6.97547 0
      vertex 19.1975 6.97547 15.24
    endloop
  endfacet
  facet normal -0.239321 0.97094 0
    outer loop
      vertex 14.2668 1.40987 0
      vertex 12.3943 0.948329 15.24
      vertex 14.2668 1.40987 15.24
    endloop
  endfacet
  facet normal -0.239321 0.97094 0
    outer loop
      vertex 12.3943 0.948329 15.24
      vertex 14.2668 1.40987 0
      vertex 12.3943 0.948329 0
    endloop
  endfacet
  facet normal -0.935014 0.354611 0
    outer loop
      vertex 18.5136 5.17221 0
      vertex 19.1975 6.97547 15.24
      vertex 19.1975 6.97547 0
    endloop
  endfacet
  facet normal -0.935014 0.354611 0
    outer loop
      vertex 19.1975 6.97547 15.24
      vertex 18.5136 5.17221 0
      vertex 18.5136 5.17221 15.24
    endloop
  endfacet
  facet normal 0.663123 0.74851 -0
    outer loop
      vertex 5.84673 3.22638 0
      vertex 5.44191 3.58502 15.24
      vertex 5.84673 3.22638 15.24
    endloop
  endfacet
  facet normal 0.663123 0.74851 0
    outer loop
      vertex 5.44191 3.58502 15.24
      vertex 5.84673 3.22638 0
      vertex 5.44191 3.58502 0
    endloop
  endfacet
  facet normal 0.935017 0.354602 0
    outer loop
      vertex 4.34635 5.17221 15.24
      vertex 3.66247 6.97547 0
      vertex 3.66247 6.97547 15.24
    endloop
  endfacet
  facet normal 0.935017 0.354602 0
    outer loop
      vertex 3.66247 6.97547 0
      vertex 4.34635 5.17221 15.24
      vertex 4.34635 5.17221 0
    endloop
  endfacet
  facet normal 0.992709 0.120539 0
    outer loop
      vertex 3.66247 6.97547 15.24
      vertex 3.43 8.89 0
      vertex 3.43 8.89 15.24
    endloop
  endfacet
  facet normal 0.992709 0.120539 0
    outer loop
      vertex 3.43 8.89 0
      vertex 3.66247 6.97547 15.24
      vertex 3.66247 6.97547 0
    endloop
  endfacet
  facet normal 0.822983 0.568065 0
    outer loop
      vertex 5.44191 3.58502 15.24
      vertex 4.34635 5.17221 0
      vertex 4.34635 5.17221 15.24
    endloop
  endfacet
  facet normal 0.822983 0.568065 0
    outer loop
      vertex 4.34635 5.17221 0
      vertex 5.44191 3.58502 15.24
      vertex 5.44191 3.58502 0
    endloop
  endfacet
  facet normal -0.663115 0.748518 0
    outer loop
      vertex 17.4181 3.58502 0
      vertex 15.9745 2.30613 15.24
      vertex 17.4181 3.58502 15.24
    endloop
  endfacet
  facet normal -0.663115 0.748518 0
    outer loop
      vertex 15.9745 2.30613 15.24
      vertex 17.4181 3.58502 0
      vertex 15.9745 2.30613 0
    endloop
  endfacet
  facet normal -0.464719 0.885458 0
    outer loop
      vertex 15.9745 2.30613 0
      vertex 14.2668 1.40987 15.24
      vertex 15.9745 2.30613 15.24
    endloop
  endfacet
  facet normal -0.464719 0.885458 0
    outer loop
      vertex 14.2668 1.40987 15.24
      vertex 15.9745 2.30613 0
      vertex 14.2668 1.40987 0
    endloop
  endfacet
  facet normal 0.239316 0.970942 -0
    outer loop
      vertex 10.4657 0.948329 0
      vertex 8.59316 1.40987 15.24
      vertex 10.4657 0.948329 15.24
    endloop
  endfacet
  facet normal 0.239316 0.970942 0
    outer loop
      vertex 8.59316 1.40987 15.24
      vertex 10.4657 0.948329 0
      vertex 8.59316 1.40987 0
    endloop
  endfacet
  facet normal -0.822998 0.568044 0
    outer loop
      vertex 17.4181 3.58502 0
      vertex 18.5136 5.17221 15.24
      vertex 18.5136 5.17221 0
    endloop
  endfacet
  facet normal -0.822998 0.568044 0
    outer loop
      vertex 18.5136 5.17221 15.24
      vertex 17.4181 3.58502 0
      vertex 17.4181 3.58502 15.24
    endloop
  endfacet
  facet normal 0.464727 0.885454 -0
    outer loop
      vertex 8.59316 1.40987 0
      vertex 7.58071 1.94125 15.24
      vertex 8.59316 1.40987 15.24
    endloop
  endfacet
  facet normal 0.464727 0.885454 0
    outer loop
      vertex 7.58071 1.94125 15.24
      vertex 8.59316 1.40987 0
      vertex 7.58071 1.94125 0
    endloop
  endfacet
  facet normal -0.992691 -0.120684 0
    outer loop
      vertex 42.0575 10.8045 0
      vertex 42.1218 10.2756 6.82
      vertex 42.0575 10.8045 15.24
    endloop
  endfacet
  facet normal -0.992707 -0.120556 -0
    outer loop
      vertex 42.29 8.89 6.02
      vertex 42.0575 10.8045 0
      vertex 42.29 8.89 0
    endloop
  endfacet
  facet normal -0.992712 -0.120514 1.33831e-05
    outer loop
      vertex 42.0575 10.8045 0
      vertex 42.29 8.89 6.02
      vertex 42.1218 10.2756 6.82
    endloop
  endfacet
  facet normal -0.992691 -0.120684 -0
    outer loop
      vertex 42.1218 10.2756 8.42
      vertex 42.0575 10.8045 15.24
      vertex 42.1218 10.2756 6.82
    endloop
  endfacet
  facet normal -0.992712 -0.120514 -1.33831e-05
    outer loop
      vertex 42.29 8.89 9.22
      vertex 42.0575 10.8045 15.24
      vertex 42.1218 10.2756 8.42
    endloop
  endfacet
  facet normal -0.992707 -0.120556 0
    outer loop
      vertex 42.0575 10.8045 15.24
      vertex 42.29 8.89 9.22
      vertex 42.29 8.89 15.24
    endloop
  endfacet
  facet normal 0 -1 0
    outer loop
      vertex 33.3257 16.8317 0
      vertex 35.2543 16.8317 15.24
      vertex 33.3257 16.8317 15.24
    endloop
  endfacet
  facet normal 0 -1 -0
    outer loop
      vertex 35.2543 16.8317 15.24
      vertex 33.3257 16.8317 0
      vertex 35.2543 16.8317 0
    endloop
  endfacet
  facet normal -0.239321 0.97094 0
    outer loop
      vertex 37.1268 1.40987 0
      vertex 35.2543 0.948329 15.24
      vertex 37.1268 1.40987 15.24
    endloop
  endfacet
  facet normal -0.239321 0.97094 0
    outer loop
      vertex 35.2543 0.948329 15.24
      vertex 37.1268 1.40987 0
      vertex 35.2543 0.948329 0
    endloop
  endfacet
  facet normal -0.663135 -0.7485 0
    outer loop
      vertex 39.7713 14.644 0
      vertex 40.2781 14.195 15.24
      vertex 39.7713 14.644 15.24
    endloop
  endfacet
  facet normal -0.663135 -0.7485 -0
    outer loop
      vertex 40.2781 14.195 15.24
      vertex 39.7713 14.644 0
      vertex 40.2781 14.195 0
    endloop
  endfacet
  facet normal -0.935016 -0.354604 0
    outer loop
      vertex 42.0575 10.8045 0
      vertex 41.3736 12.6078 15.24
      vertex 41.3736 12.6078 0
    endloop
  endfacet
  facet normal -0.935016 -0.354604 0
    outer loop
      vertex 41.3736 12.6078 15.24
      vertex 42.0575 10.8045 0
      vertex 42.0575 10.8045 15.24
    endloop
  endfacet
  facet normal 0.823 -0.568042 0
    outer loop
      vertex 27.2064 12.6078 15.24
      vertex 28.3019 14.195 0
      vertex 28.3019 14.195 15.24
    endloop
  endfacet
  facet normal 0.823 -0.568042 0
    outer loop
      vertex 28.3019 14.195 0
      vertex 27.2064 12.6078 15.24
      vertex 27.2064 12.6078 0
    endloop
  endfacet
  facet normal 0.935016 -0.354604 0
    outer loop
      vertex 26.5225 10.8045 15.24
      vertex 27.2064 12.6078 0
      vertex 27.2064 12.6078 15.24
    endloop
  endfacet
  facet normal 0.935016 -0.354604 0
    outer loop
      vertex 27.2064 12.6078 0
      vertex 26.5225 10.8045 15.24
      vertex 26.5225 10.8045 0
    endloop
  endfacet
  facet normal 0.464695 -0.885471 0
    outer loop
      vertex 29.7455 15.4739 0
      vertex 31.4532 16.3701 15.24
      vertex 29.7455 15.4739 15.24
    endloop
  endfacet
  facet normal 0.464695 -0.885471 0
    outer loop
      vertex 31.4532 16.3701 15.24
      vertex 29.7455 15.4739 0
      vertex 31.4532 16.3701 0
    endloop
  endfacet
  facet normal -0.935014 0.354611 0
    outer loop
      vertex 41.3736 5.17221 0
      vertex 42.0575 6.97547 15.24
      vertex 42.0575 6.97547 0
    endloop
  endfacet
  facet normal -0.935014 0.354611 0
    outer loop
      vertex 42.0575 6.97547 15.24
      vertex 41.3736 5.17221 0
      vertex 41.3736 5.17221 15.24
    endloop
  endfacet
  facet normal -0.823 -0.568042 0
    outer loop
      vertex 41.3736 12.6078 0
      vertex 40.2781 14.195 15.24
      vertex 40.2781 14.195 0
    endloop
  endfacet
  facet normal -0.823 -0.568042 0
    outer loop
      vertex 40.2781 14.195 15.24
      vertex 41.3736 12.6078 0
      vertex 41.3736 12.6078 15.24
    endloop
  endfacet
  facet normal -0.23935 -0.970933 0
    outer loop
      vertex 35.2543 16.8317 0
      vertex 37.1268 16.3701 15.24
      vertex 35.2543 16.8317 15.24
    endloop
  endfacet
  facet normal -0.23935 -0.970933 -0
    outer loop
      vertex 37.1268 16.3701 15.24
      vertex 35.2543 16.8317 0
      vertex 37.1268 16.3701 0
    endloop
  endfacet
  facet normal -0.464686 -0.885476 0
    outer loop
      vertex 37.1268 16.3701 0
      vertex 38.0184 15.9022 15.24
      vertex 37.1268 16.3701 15.24
    endloop
  endfacet
  facet normal -0.464686 -0.885476 -0
    outer loop
      vertex 38.0184 15.9022 15.24
      vertex 37.1268 16.3701 0
      vertex 38.0184 15.9022 0
    endloop
  endfacet
  facet normal 0.992707 -0.120556 0
    outer loop
      vertex 26.29 8.89 15.24
      vertex 26.5225 10.8045 0
      vertex 26.5225 10.8045 15.24
    endloop
  endfacet
  facet normal 0.992707 -0.120556 0
    outer loop
      vertex 26.5225 10.8045 0
      vertex 26.29 8.89 15.24
      vertex 26.29 8.89 0
    endloop
  endfacet
  facet normal 0.663117 -0.748515 0
    outer loop
      vertex 28.3019 14.195 0
      vertex 29.7455 15.4739 15.24
      vertex 28.3019 14.195 15.24
    endloop
  endfacet
  facet normal 0.663117 -0.748515 0
    outer loop
      vertex 29.7455 15.4739 15.24
      vertex 28.3019 14.195 0
      vertex 29.7455 15.4739 0
    endloop
  endfacet
  facet normal 0.23935 -0.970933 0
    outer loop
      vertex 31.4532 16.3701 0
      vertex 33.3257 16.8317 15.24
      vertex 31.4532 16.3701 15.24
    endloop
  endfacet
  facet normal 0.23935 -0.970933 0
    outer loop
      vertex 33.3257 16.8317 15.24
      vertex 31.4532 16.3701 0
      vertex 33.3257 16.8317 0
    endloop
  endfacet
  facet normal -0.992707 0.120554 0
    outer loop
      vertex 42.0575 6.97547 0
      vertex 42.29 8.89 6.02
      vertex 42.29 8.89 0
    endloop
  endfacet
  facet normal -0.992691 0.120687 0
    outer loop
      vertex 42.1218 7.50436 6.82
      vertex 42.0575 6.97547 0
      vertex 42.1218 7.50436 8.42
    endloop
  endfacet
  facet normal -0.992712 0.120511 1.38104e-05
    outer loop
      vertex 42.29 8.89 6.02
      vertex 42.0575 6.97547 0
      vertex 42.1218 7.50436 6.82
    endloop
  endfacet
  facet normal -0.992712 0.120511 -1.38104e-05
    outer loop
      vertex 42.0575 6.97547 15.24
      vertex 42.29 8.89 9.22
      vertex 42.1218 7.50436 8.42
    endloop
  endfacet
  facet normal -0.992707 0.120554 0
    outer loop
      vertex 42.29 8.89 9.22
      vertex 42.0575 6.97547 15.24
      vertex 42.29 8.89 15.24
    endloop
  endfacet
  facet normal -0.992691 0.120687 0
    outer loop
      vertex 42.0575 6.97547 15.24
      vertex 42.1218 7.50436 8.42
      vertex 42.0575 6.97547 0
    endloop
  endfacet
  facet normal -0.822998 0.568044 0
    outer loop
      vertex 40.2781 3.58502 0
      vertex 41.3736 5.17221 15.24
      vertex 41.3736 5.17221 0
    endloop
  endfacet
  facet normal -0.822998 0.568044 0
    outer loop
      vertex 41.3736 5.17221 15.24
      vertex 40.2781 3.58502 0
      vertex 40.2781 3.58502 15.24
    endloop
  endfacet
  facet normal 0.992707 0.120554 0
    outer loop
      vertex 26.5225 6.97547 15.24
      vertex 26.29 8.89 0
      vertex 26.29 8.89 15.24
    endloop
  endfacet
  facet normal 0.992707 0.120554 0
    outer loop
      vertex 26.29 8.89 0
      vertex 26.5225 6.97547 15.24
      vertex 26.5225 6.97547 0
    endloop
  endfacet
  facet normal 0.239321 0.97094 -0
    outer loop
      vertex 33.3257 0.948329 0
      vertex 31.4532 1.40987 15.24
      vertex 33.3257 0.948329 15.24
    endloop
  endfacet
  facet normal 0.239321 0.97094 0
    outer loop
      vertex 31.4532 1.40987 15.24
      vertex 33.3257 0.948329 0
      vertex 31.4532 1.40987 0
    endloop
  endfacet
  facet normal 0.663115 0.748518 -0
    outer loop
      vertex 29.7455 2.30613 0
      vertex 28.3019 3.58502 15.24
      vertex 29.7455 2.30613 15.24
    endloop
  endfacet
  facet normal 0.663115 0.748518 0
    outer loop
      vertex 28.3019 3.58502 15.24
      vertex 29.7455 2.30613 0
      vertex 28.3019 3.58502 0
    endloop
  endfacet
  facet normal 0.935014 0.354611 0
    outer loop
      vertex 27.2064 5.17221 15.24
      vertex 26.5225 6.97547 0
      vertex 26.5225 6.97547 15.24
    endloop
  endfacet
  facet normal 0.935014 0.354611 0
    outer loop
      vertex 26.5225 6.97547 0
      vertex 27.2064 5.17221 15.24
      vertex 27.2064 5.17221 0
    endloop
  endfacet
  facet normal -0.464702 0.885467 0
    outer loop
      vertex 38.0184 1.87779 0
      vertex 37.1268 1.40987 15.24
      vertex 38.0184 1.87779 15.24
    endloop
  endfacet
  facet normal -0.464702 0.885467 0
    outer loop
      vertex 37.1268 1.40987 15.24
      vertex 38.0184 1.87779 0
      vertex 37.1268 1.40987 0
    endloop
  endfacet
  facet normal 0 1 -0
    outer loop
      vertex 35.2543 0.948329 0
      vertex 33.3257 0.948329 15.24
      vertex 35.2543 0.948329 15.24
    endloop
  endfacet
  facet normal 0 1 0
    outer loop
      vertex 33.3257 0.948329 15.24
      vertex 35.2543 0.948329 0
      vertex 33.3257 0.948329 0
    endloop
  endfacet
  facet normal 0.464719 0.885458 -0
    outer loop
      vertex 31.4532 1.40987 0
      vertex 29.7455 2.30613 15.24
      vertex 31.4532 1.40987 15.24
    endloop
  endfacet
  facet normal 0.464719 0.885458 0
    outer loop
      vertex 29.7455 2.30613 15.24
      vertex 31.4532 1.40987 0
      vertex 29.7455 2.30613 0
    endloop
  endfacet
  facet normal 0.822998 0.568044 0
    outer loop
      vertex 28.3019 3.58502 15.24
      vertex 27.2064 5.17221 0
      vertex 27.2064 5.17221 15.24
    endloop
  endfacet
  facet normal 0.822998 0.568044 0
    outer loop
      vertex 27.2064 5.17221 0
      vertex 28.3019 3.58502 15.24
      vertex 28.3019 3.58502 0
    endloop
  endfacet
  facet normal -0.663151 0.748486 0
    outer loop
      vertex 40.2781 3.58502 0
      vertex 39.7713 3.136 15.24
      vertex 40.2781 3.58502 15.24
    endloop
  endfacet
  facet normal -0.663151 0.748486 0
    outer loop
      vertex 39.7713 3.136 15.24
      vertex 40.2781 3.58502 0
      vertex 39.7713 3.136 0
    endloop
  endfacet
  facet normal 1 -0 0
    outer loop
      vertex 20.86 0.0501432 7.62
      vertex 20.86 1.778 1.524
      vertex 20.86 1.778 7.62
    endloop
  endfacet
  facet normal 1 0 0
    outer loop
      vertex 20.86 1.778 1.524
      vertex 20.86 0.0501432 7.62
      vertex 20.86 0.0501432 1.524
    endloop
  endfacet
  facet normal 0 0 -1
    outer loop
      vertex 20.86 0.0501432 7.62
      vertex 24.86 1.778 7.62
      vertex 24.86 0.0501432 7.62
    endloop
  endfacet
  facet normal -0 0 -1
    outer loop
      vertex 24.86 1.778 7.62
      vertex 20.86 0.0501432 7.62
      vertex 20.86 1.778 7.62
    endloop
  endfacet
  facet normal -1 0 0
    outer loop
      vertex 24.86 0.0501432 1.524
      vertex 24.86 1.778 7.62
      vertex 24.86 1.778 1.524
    endloop
  endfacet
  facet normal -1 -0 0
    outer loop
      vertex 24.86 1.778 7.62
      vertex 24.86 0.0501432 1.524
      vertex 24.86 0.0501432 7.62
    endloop
  endfacet
  facet normal 0 -1 0
    outer loop
      vertex 20.86 1.778 1.524
      vertex 24.86 1.778 7.62
      vertex 20.86 1.778 7.62
    endloop
  endfacet
  facet normal 0 -1 -0
    outer loop
      vertex 24.86 1.778 7.62
      vertex 20.86 1.778 1.524
      vertex 24.86 1.778 1.524
    endloop
  endfacet
  facet normal -0 0 1
    outer loop
      vertex 20.86 1.778 1.524
      vertex 24.86 0.0501432 1.524
      vertex 24.86 1.778 1.524
    endloop
  endfacet
  facet normal 0 0 1
    outer loop
      vertex 24.86 0.0501432 1.524
      vertex 20.86 1.778 1.524
      vertex 20.86 0.0501432 1.524
    endloop
  endfacet
  facet normal -1 0 0
    outer loop
      vertex 8.644 3.556 -2.286
      vertex 8.644 14.224 2.286
      vertex 8.644 14.224 -2.286
    endloop
  endfacet
  facet normal -1 -0 0
    outer loop
      vertex 8.644 14.224 2.286
      vertex 8.644 3.556 -2.286
      vertex 8.644 3.556 2.286
    endloop
  endfacet
  facet normal -0 0 1
    outer loop
      vertex 8.644 14.224 2.286
      vertex 9.644 3.556 2.286
      vertex 9.644 14.224 2.286
    endloop
  endfacet
  facet normal 0 0 1
    outer loop
      vertex 9.644 3.556 2.286
      vertex 8.644 14.224 2.286
      vertex 8.644 3.556 2.286
    endloop
  endfacet
  facet normal 1 -0 0
    outer loop
      vertex 9.644 3.556 2.286
      vertex 9.644 14.224 -2.286
      vertex 9.644 14.224 2.286
    endloop
  endfacet
  facet normal 1 0 0
    outer loop
      vertex 9.644 14.224 -2.286
      vertex 9.644 3.556 2.286
      vertex 9.644 3.556 -2.286
    endloop
  endfacet
  facet normal 0 0 -1
    outer loop
      vertex 8.644 3.556 -2.286
      vertex 9.644 14.224 -2.286
      vertex 9.644 3.556 -2.286
    endloop
  endfacet
  facet normal -0 0 -1
    outer loop
      vertex 9.644 14.224 -2.286
      vertex 8.644 3.556 -2.286
      vertex 8.644 14.224 -2.286
    endloop
  endfacet
  facet normal 0 -1 0
    outer loop
      vertex 8.644 3.556 -2.286
      vertex 9.644 3.556 2.286
      vertex 8.644 3.556 2.286
    endloop
  endfacet
  facet normal 0 -1 -0
    outer loop
      vertex 9.644 3.556 2.286
      vertex 8.644 3.556 -2.286
      vertex 9.644 3.556 -2.286
    endloop
  endfacet
  facet normal 0 1 -0
    outer loop
      vertex 9.644 14.224 -2.286
      vertex 8.644 14.224 2.286
      vertex 9.644 14.224 2.286
    endloop
  endfacet
  facet normal 0 1 0
    outer loop
      vertex 8.644 14.224 2.286
      vertex 9.644 14.224 -2.286
      vertex 8.644 14.224 -2.286
    endloop
  endfacet
  facet normal -1 0 0
    outer loop
      vertex 22.36 3.556 -2.286
      vertex 22.36 14.224 0
      vertex 22.36 14.224 -2.286
    endloop
  endfacet
  facet normal -1 -0 0
    outer loop
      vertex 22.36 14.224 0
      vertex 22.36 3.556 -2.286
      vertex 22.36 3.556 0
    endloop
  endfacet
  facet normal 1 -0 0
    outer loop
      vertex 23.36 3.556 0
      vertex 23.36 14.224 -2.286
      vertex 23.36 14.224 0
    endloop
  endfacet
  facet normal 1 0 0
    outer loop
      vertex 23.36 14.224 -2.286
      vertex 23.36 3.556 0
      vertex 23.36 3.556 -2.286
    endloop
  endfacet
  facet normal 0 1 -0
    outer loop
      vertex 23.36 14.224 -2.286
      vertex 22.36 14.224 0
      vertex 23.36 14.224 0
    endloop
  endfacet
  facet normal 0 1 0
    outer loop
      vertex 22.36 14.224 0
      vertex 23.36 14.224 -2.286
      vertex 22.36 14.224 -2.286
    endloop
  endfacet
  facet normal 0 0 -1
    outer loop
      vertex 22.36 3.556 -2.286
      vertex 23.36 14.224 -2.286
      vertex 23.36 3.556 -2.286
    endloop
  endfacet
  facet normal -0 0 -1
    outer loop
      vertex 23.36 14.224 -2.286
      vertex 22.36 3.556 -2.286
      vertex 22.36 14.224 -2.286
    endloop
  endfacet
  facet normal 0 -1 0
    outer loop
      vertex 22.36 3.556 -2.286
      vertex 23.36 3.556 0
      vertex 22.36 3.556 0
    endloop
  endfacet
  facet normal 0 -1 -0
    outer loop
      vertex 23.36 3.556 0
      vertex 22.36 3.556 -2.286
      vertex 23.36 3.556 -2.286
    endloop
  endfacet
  facet normal -1 0 0
    outer loop
      vertex 36.076 3.556 -2.286
      vertex 36.076 14.224 2.286
      vertex 36.076 14.224 -2.286
    endloop
  endfacet
  facet normal -1 -0 0
    outer loop
      vertex 36.076 14.224 2.286
      vertex 36.076 3.556 -2.286
      vertex 36.076 3.556 2.286
    endloop
  endfacet
  facet normal -0 0 1
    outer loop
      vertex 36.076 14.224 2.286
      vertex 37.076 3.556 2.286
      vertex 37.076 14.224 2.286
    endloop
  endfacet
  facet normal 0 0 1
    outer loop
      vertex 37.076 3.556 2.286
      vertex 36.076 14.224 2.286
      vertex 36.076 3.556 2.286
    endloop
  endfacet
  facet normal 1 -0 0
    outer loop
      vertex 37.076 3.556 2.286
      vertex 37.076 14.224 -2.286
      vertex 37.076 14.224 2.286
    endloop
  endfacet
  facet normal 1 0 0
    outer loop
      vertex 37.076 14.224 -2.286
      vertex 37.076 3.556 2.286
      vertex 37.076 3.556 -2.286
    endloop
  endfacet
  facet normal 0 1 -0
    outer loop
      vertex 37.076 14.224 -2.286
      vertex 36.076 14.224 2.286
      vertex 37.076 14.224 2.286
    endloop
  endfacet
  facet normal 0 1 0
    outer loop
      vertex 36.076 14.224 2.286
      vertex 37.076 14.224 -2.286
      vertex 36.076 14.224 -2.286
    endloop
  endfacet
  facet normal 0 0 -1
    outer loop
      vertex 36.076 3.556 -2.286
      vertex 37.076 14.224 -2.286
      vertex 37.076 3.556 -2.286
    endloop
  endfacet
  facet normal -0 0 -1
    outer loop
      vertex 37.076 14.224 -2.286
      vertex 36.076 3.556 -2.286
      vertex 36.076 14.224 -2.286
    endloop
  endfacet
  facet normal 0 -1 0
    outer loop
      vertex 36.076 3.556 -2.286
      vertex 37.076 3.556 2.286
      vertex 36.076 3.556 2.286
    endloop
  endfacet
  facet normal 0 -1 -0
    outer loop
      vertex 37.076 3.556 2.286
      vertex 36.076 3.556 -2.286
      vertex 37.076 3.556 -2.286
    endloop
  endfacet
endsolid OpenSCAD_Model
